<mxfile modified="2020-04-02T13:53:21.378Z" host="www.draw.io" agent="5.0 (Windows NT 10.0; Win64; x64) AppleWebKit/537.36 (KHTML, like Gecko) Chrome/80.0.3987.149 Safari/537.36" etag="WFEENCuiSlNKipxepw7S" version="12.9.6" type="github">
  <diagram id="Ht1M8jgEwFfnCIfOTk4-" name="Page-1">
    <mxGraphModel dx="2048" dy="970" grid="1" gridSize="10" guides="1" tooltips="1" connect="1" arrows="1" fold="1" page="1" pageScale="1" pageWidth="1654" pageHeight="1169" math="0" shadow="0">
      <root>
        <mxCell id="0" />
        <mxCell id="1" parent="0" />
        <mxCell id="e5_hwdFRrixaUd5XO73S-13" value="" style="points=[[0,0],[0.25,0],[0.5,0],[0.75,0],[1,0],[1,0.25],[1,0.5],[1,0.75],[1,1],[0.75,1],[0.5,1],[0.25,1],[0,1],[0,0.75],[0,0.5],[0,0.25]];outlineConnect=0;gradientColor=none;html=1;whiteSpace=wrap;fontSize=12;fontStyle=0;shape=mxgraph.aws4.group;grIcon=mxgraph.aws4.group_aws_cloud_alt;strokeColor=#232F3E;fillColor=none;verticalAlign=top;align=left;spacingLeft=30;fontColor=#232F3E;dashed=0;" parent="1" vertex="1">
          <mxGeometry x="100" y="150" width="930" height="750" as="geometry" />
        </mxCell>
        <mxCell id="vU39-n22EpczDboYUa4I-1" value="オレゴン" style="shape=umlFrame;whiteSpace=wrap;html=1;" parent="1" vertex="1">
          <mxGeometry x="120" y="180" width="120" height="700" as="geometry" />
        </mxCell>
        <mxCell id="vU39-n22EpczDboYUa4I-2" value="東京" style="shape=umlFrame;whiteSpace=wrap;html=1;" parent="1" vertex="1">
          <mxGeometry x="260" y="180.5" width="750" height="699.5" as="geometry" />
        </mxCell>
        <mxCell id="UEzPUAAOIrF-is8g5C7q-142" style="edgeStyle=orthogonalEdgeStyle;rounded=0;orthogonalLoop=1;jettySize=auto;html=1;startArrow=none;startFill=0;endArrow=open;endFill=0;strokeWidth=2;strokeColor=#808080;" parent="1" source="ZsC_KIL5skKTg2AY2HEx-5" target="e5_hwdFRrixaUd5XO73S-12" edge="1">
          <mxGeometry relative="1" as="geometry">
            <mxPoint x="496.5" y="261.5" as="sourcePoint" />
            <mxPoint x="569" y="262" as="targetPoint" />
            <Array as="points" />
          </mxGeometry>
        </mxCell>
        <mxCell id="e5_hwdFRrixaUd5XO73S-8" style="edgeStyle=orthogonalEdgeStyle;rounded=0;orthogonalLoop=1;jettySize=auto;html=1;startArrow=none;startFill=0;endArrow=open;endFill=0;strokeWidth=2;strokeColor=#808080;" parent="1" source="ZsC_KIL5skKTg2AY2HEx-6" target="ZsC_KIL5skKTg2AY2HEx-5" edge="1">
          <mxGeometry relative="1" as="geometry">
            <Array as="points" />
            <mxPoint x="339" y="210" as="sourcePoint" />
            <mxPoint x="450" y="282" as="targetPoint" />
          </mxGeometry>
        </mxCell>
        <mxCell id="e5_hwdFRrixaUd5XO73S-12" value="Lambda" style="outlineConnect=0;fontColor=#232F3E;gradientColor=#F78E04;gradientDirection=north;fillColor=#D05C17;strokeColor=#ffffff;dashed=0;verticalLabelPosition=bottom;verticalAlign=top;align=center;html=1;fontSize=12;fontStyle=0;aspect=fixed;shape=mxgraph.aws4.resourceIcon;resIcon=mxgraph.aws4.lambda;" parent="1" vertex="1">
          <mxGeometry x="405" y="375" width="78" height="78" as="geometry" />
        </mxCell>
        <mxCell id="d9MhdAnFFDUoCID3Rv5p-2" style="edgeStyle=orthogonalEdgeStyle;rounded=0;orthogonalLoop=1;jettySize=auto;html=1;startArrow=none;startFill=0;endArrow=open;endFill=0;strokeWidth=2;strokeColor=#808080;" parent="1" source="e5_hwdFRrixaUd5XO73S-12" target="vU39-n22EpczDboYUa4I-3" edge="1">
          <mxGeometry relative="1" as="geometry">
            <mxPoint x="649.5" y="261.5" as="sourcePoint" />
            <mxPoint x="722.0000000000002" y="267" as="targetPoint" />
            <Array as="points">
              <mxPoint x="520" y="414" />
              <mxPoint x="520" y="277" />
            </Array>
          </mxGeometry>
        </mxCell>
        <mxCell id="d9MhdAnFFDUoCID3Rv5p-3" style="rounded=0;orthogonalLoop=1;jettySize=auto;html=1;startArrow=none;startFill=0;endArrow=open;endFill=0;strokeWidth=2;strokeColor=#808080;entryX=0;entryY=0.48;entryDx=0;entryDy=0;entryPerimeter=0;exitX=0.5;exitY=0.94;exitDx=0;exitDy=0;exitPerimeter=0;edgeStyle=orthogonalEdgeStyle;" parent="1" source="ZsC_KIL5skKTg2AY2HEx-2" target="ZsC_KIL5skKTg2AY2HEx-3" edge="1">
          <mxGeometry relative="1" as="geometry">
            <mxPoint x="450" y="80" as="sourcePoint" />
            <mxPoint x="408.5" y="262" as="targetPoint" />
            <Array as="points">
              <mxPoint x="63" y="264" />
            </Array>
          </mxGeometry>
        </mxCell>
        <mxCell id="ZsC_KIL5skKTg2AY2HEx-2" value="" style="fontColor=#0066CC;verticalAlign=top;verticalLabelPosition=bottom;labelPosition=center;align=center;html=1;outlineConnect=0;fillColor=#CCCCCC;strokeColor=#6881B3;gradientColor=none;gradientDirection=north;strokeWidth=2;shape=mxgraph.networks.mail_server;labelBackgroundColor=none;" parent="1" vertex="1">
          <mxGeometry x="10" y="30" width="105" height="105" as="geometry" />
        </mxCell>
        <mxCell id="ZsC_KIL5skKTg2AY2HEx-3" value="SES" style="outlineConnect=0;dashed=0;verticalLabelPosition=bottom;verticalAlign=top;align=center;html=1;shape=mxgraph.aws3.ses;fillColor=#D9A741;gradientColor=none;labelBackgroundColor=none;" parent="1" vertex="1">
          <mxGeometry x="140" y="219" width="79.5" height="93" as="geometry" />
        </mxCell>
        <mxCell id="ZsC_KIL5skKTg2AY2HEx-5" value="SQS" style="outlineConnect=0;fontColor=#232F3E;gradientColor=#F34482;gradientDirection=north;fillColor=#BC1356;strokeColor=#ffffff;dashed=0;verticalLabelPosition=bottom;verticalAlign=top;align=center;html=1;fontSize=12;fontStyle=0;aspect=fixed;shape=mxgraph.aws4.resourceIcon;resIcon=mxgraph.aws4.sqs;labelBackgroundColor=none;" parent="1" vertex="1">
          <mxGeometry x="292" y="375.25" width="78" height="78" as="geometry" />
        </mxCell>
        <mxCell id="ZsC_KIL5skKTg2AY2HEx-6" value="SNS" style="outlineConnect=0;fontColor=#232F3E;gradientColor=#F34482;gradientDirection=north;fillColor=#BC1356;strokeColor=#ffffff;dashed=0;verticalLabelPosition=bottom;verticalAlign=top;align=center;html=1;fontSize=12;fontStyle=0;aspect=fixed;shape=mxgraph.aws4.resourceIcon;resIcon=mxgraph.aws4.sns;labelBackgroundColor=none;" parent="1" vertex="1">
          <mxGeometry x="140.75" y="375" width="78" height="78" as="geometry" />
        </mxCell>
        <mxCell id="ZsC_KIL5skKTg2AY2HEx-1" value="" style="html=1;verticalLabelPosition=bottom;align=center;labelBackgroundColor=#ffffff;verticalAlign=top;strokeWidth=2;strokeColor=#0080F0;shadow=0;dashed=0;shape=mxgraph.ios7.icons.mail;" parent="1" vertex="1">
          <mxGeometry x="20" y="228" width="32" height="26.5" as="geometry" />
        </mxCell>
        <mxCell id="ZsC_KIL5skKTg2AY2HEx-8" style="edgeStyle=orthogonalEdgeStyle;rounded=0;orthogonalLoop=1;jettySize=auto;html=1;startArrow=none;startFill=0;endArrow=open;endFill=0;strokeWidth=2;strokeColor=#808080;" parent="1" source="ZsC_KIL5skKTg2AY2HEx-3" target="ZsC_KIL5skKTg2AY2HEx-6" edge="1">
          <mxGeometry relative="1" as="geometry">
            <Array as="points" />
            <mxPoint x="224" y="266" as="sourcePoint" />
            <mxPoint x="280" y="266" as="targetPoint" />
          </mxGeometry>
        </mxCell>
        <mxCell id="vU39-n22EpczDboYUa4I-3" value="SNS" style="outlineConnect=0;fontColor=#232F3E;gradientColor=#F34482;gradientDirection=north;fillColor=#BC1356;strokeColor=#ffffff;dashed=0;verticalLabelPosition=bottom;verticalAlign=top;align=center;html=1;fontSize=12;fontStyle=0;aspect=fixed;shape=mxgraph.aws4.resourceIcon;resIcon=mxgraph.aws4.sns;labelBackgroundColor=none;" parent="1" vertex="1">
          <mxGeometry x="571" y="234" width="78" height="78" as="geometry" />
        </mxCell>
        <mxCell id="vU39-n22EpczDboYUa4I-4" style="edgeStyle=orthogonalEdgeStyle;rounded=0;orthogonalLoop=1;jettySize=auto;html=1;startArrow=none;startFill=0;endArrow=open;endFill=0;strokeWidth=2;strokeColor=#808080;" parent="1" source="vU39-n22EpczDboYUa4I-3" target="vU39-n22EpczDboYUa4I-5" edge="1">
          <mxGeometry relative="1" as="geometry">
            <Array as="points" />
            <mxPoint x="800.0000000000002" y="267" as="sourcePoint" />
            <mxPoint x="447" y="277" as="targetPoint" />
          </mxGeometry>
        </mxCell>
        <mxCell id="vU39-n22EpczDboYUa4I-5" value="" style="fontColor=#0066CC;verticalAlign=top;verticalLabelPosition=bottom;labelPosition=center;align=center;html=1;outlineConnect=0;fillColor=#CCCCCC;strokeColor=#6881B3;gradientColor=none;gradientDirection=north;strokeWidth=2;shape=mxgraph.networks.mail_server;labelBackgroundColor=none;" parent="1" vertex="1">
          <mxGeometry x="1008" y="40" width="105" height="105" as="geometry" />
        </mxCell>
        <mxCell id="vU39-n22EpczDboYUa4I-6" value="" style="html=1;verticalLabelPosition=bottom;align=center;labelBackgroundColor=#ffffff;verticalAlign=top;strokeWidth=2;strokeColor=#0080F0;shadow=0;dashed=0;shape=mxgraph.ios7.icons.mail;" parent="1" vertex="1">
          <mxGeometry x="1072.5" y="238" width="32" height="26.5" as="geometry" />
        </mxCell>
        <mxCell id="5embb1CeHcYyUcUg4fd0-1" value="SQS" style="outlineConnect=0;fontColor=#232F3E;gradientColor=#F34482;gradientDirection=north;fillColor=#BC1356;strokeColor=#ffffff;dashed=0;verticalLabelPosition=bottom;verticalAlign=top;align=center;html=1;fontSize=12;fontStyle=0;aspect=fixed;shape=mxgraph.aws4.resourceIcon;resIcon=mxgraph.aws4.sqs;labelBackgroundColor=none;" parent="1" vertex="1">
          <mxGeometry x="583.5" y="500" width="53" height="53" as="geometry" />
        </mxCell>
        <mxCell id="5embb1CeHcYyUcUg4fd0-3" style="edgeStyle=orthogonalEdgeStyle;rounded=0;orthogonalLoop=1;jettySize=auto;html=1;startArrow=none;startFill=0;endArrow=open;endFill=0;strokeWidth=2;strokeColor=#808080;" parent="1" source="iw9xhnVelCiW8hpv55Ob-1" target="iw9xhnVelCiW8hpv55Ob-5" edge="1">
          <mxGeometry relative="1" as="geometry">
            <mxPoint x="675" y="277" as="sourcePoint" />
            <mxPoint x="732" y="277" as="targetPoint" />
            <Array as="points">
              <mxPoint x="610" y="480" />
              <mxPoint x="716" y="480" />
            </Array>
          </mxGeometry>
        </mxCell>
        <mxCell id="5embb1CeHcYyUcUg4fd0-4" value="Lambda" style="outlineConnect=0;fontColor=#232F3E;gradientColor=#F78E04;gradientDirection=north;fillColor=#D05C17;strokeColor=#ffffff;dashed=0;verticalLabelPosition=bottom;verticalAlign=top;align=center;html=1;fontSize=12;fontStyle=0;aspect=fixed;shape=mxgraph.aws4.resourceIcon;resIcon=mxgraph.aws4.lambda;" parent="1" vertex="1">
          <mxGeometry x="780" y="375.25" width="78" height="78" as="geometry" />
        </mxCell>
        <mxCell id="5embb1CeHcYyUcUg4fd0-5" style="edgeStyle=orthogonalEdgeStyle;rounded=0;orthogonalLoop=1;jettySize=auto;html=1;startArrow=none;startFill=0;endArrow=open;endFill=0;strokeWidth=2;strokeColor=#808080;" parent="1" source="iw9xhnVelCiW8hpv55Ob-1" target="5embb1CeHcYyUcUg4fd0-4" edge="1">
          <mxGeometry relative="1" as="geometry">
            <mxPoint x="771" y="306" as="sourcePoint" />
            <mxPoint x="771" y="380" as="targetPoint" />
            <Array as="points" />
          </mxGeometry>
        </mxCell>
        <mxCell id="5embb1CeHcYyUcUg4fd0-6" style="edgeStyle=orthogonalEdgeStyle;rounded=0;orthogonalLoop=1;jettySize=auto;html=1;startArrow=none;startFill=0;endArrow=open;endFill=0;strokeWidth=2;strokeColor=#808080;entryX=0;entryY=0.5;entryDx=0;entryDy=0;" parent="1" source="5embb1CeHcYyUcUg4fd0-4" edge="1" target="VR1-NvFaAeIVhitkqFrb-18">
          <mxGeometry relative="1" as="geometry">
            <mxPoint x="810" y="419" as="sourcePoint" />
            <mxPoint x="1016.5" y="414" as="targetPoint" />
            <Array as="points" />
          </mxGeometry>
        </mxCell>
        <mxCell id="5embb1CeHcYyUcUg4fd0-8" value="Lambda" style="outlineConnect=0;fontColor=#232F3E;gradientColor=#F78E04;gradientDirection=north;fillColor=#D05C17;strokeColor=#ffffff;dashed=0;verticalLabelPosition=bottom;verticalAlign=top;align=center;html=1;fontSize=12;fontStyle=0;aspect=fixed;shape=mxgraph.aws4.resourceIcon;resIcon=mxgraph.aws4.lambda;" parent="1" vertex="1">
          <mxGeometry x="780" y="585" width="78" height="78" as="geometry" />
        </mxCell>
        <mxCell id="5embb1CeHcYyUcUg4fd0-10" style="rounded=0;orthogonalLoop=1;jettySize=auto;html=1;startArrow=none;startFill=0;endArrow=open;endFill=0;strokeWidth=2;strokeColor=#808080;edgeStyle=orthogonalEdgeStyle;" parent="1" source="e5_hwdFRrixaUd5XO73S-12" target="iw9xhnVelCiW8hpv55Ob-3" edge="1">
          <mxGeometry relative="1" as="geometry">
            <mxPoint x="478" y="424" as="sourcePoint" />
            <mxPoint x="571" y="559" as="targetPoint" />
            <Array as="points">
              <mxPoint x="520" y="414" />
              <mxPoint x="520" y="624" />
            </Array>
          </mxGeometry>
        </mxCell>
        <mxCell id="5embb1CeHcYyUcUg4fd0-11" style="rounded=0;orthogonalLoop=1;jettySize=auto;html=1;startArrow=none;startFill=0;endArrow=open;endFill=0;strokeWidth=2;strokeColor=#808080;" parent="1" source="iw9xhnVelCiW8hpv55Ob-3" target="iw9xhnVelCiW8hpv55Ob-4" edge="1">
          <mxGeometry relative="1" as="geometry">
            <mxPoint x="649" y="560" as="sourcePoint" />
            <mxPoint x="720" y="424" as="targetPoint" />
          </mxGeometry>
        </mxCell>
        <mxCell id="5embb1CeHcYyUcUg4fd0-12" style="rounded=0;orthogonalLoop=1;jettySize=auto;html=1;startArrow=none;startFill=0;endArrow=open;endFill=0;strokeWidth=2;strokeColor=#808080;" parent="1" source="5embb1CeHcYyUcUg4fd0-8" target="VR1-NvFaAeIVhitkqFrb-2" edge="1">
          <mxGeometry relative="1" as="geometry">
            <mxPoint x="659" y="569" as="sourcePoint" />
            <mxPoint x="841" y="560.359375" as="targetPoint" />
          </mxGeometry>
        </mxCell>
        <mxCell id="5embb1CeHcYyUcUg4fd0-14" style="rounded=0;orthogonalLoop=1;jettySize=auto;html=1;startArrow=none;startFill=0;endArrow=open;endFill=0;strokeWidth=2;strokeColor=#808080;" parent="1" source="VR1-NvFaAeIVhitkqFrb-1" target="e5_hwdFRrixaUd5XO73S-12" edge="1">
          <mxGeometry relative="1" as="geometry">
            <mxPoint x="444" y="456" as="sourcePoint" />
            <mxPoint x="851" y="569.4705882352944" as="targetPoint" />
          </mxGeometry>
        </mxCell>
        <mxCell id="VR1-NvFaAeIVhitkqFrb-1" value="dynamoDB" style="outlineConnect=0;fontColor=#232F3E;gradientColor=#4D72F3;gradientDirection=north;fillColor=#3334B9;strokeColor=#ffffff;dashed=0;verticalLabelPosition=bottom;verticalAlign=top;align=center;html=1;fontSize=12;fontStyle=0;aspect=fixed;shape=mxgraph.aws4.resourceIcon;resIcon=mxgraph.aws4.dynamodb;" parent="1" vertex="1">
          <mxGeometry x="405" y="250" width="78" height="78" as="geometry" />
        </mxCell>
        <mxCell id="VR1-NvFaAeIVhitkqFrb-2" value="dynamoDB" style="outlineConnect=0;fontColor=#232F3E;gradientColor=#4D72F3;gradientDirection=north;fillColor=#3334B9;strokeColor=#ffffff;dashed=0;verticalLabelPosition=bottom;verticalAlign=top;align=center;html=1;fontSize=12;fontStyle=0;aspect=fixed;shape=mxgraph.aws4.resourceIcon;resIcon=mxgraph.aws4.dynamodb;" parent="1" vertex="1">
          <mxGeometry x="900" y="585" width="78" height="78" as="geometry" />
        </mxCell>
        <mxCell id="VR1-NvFaAeIVhitkqFrb-4" value="s3" style="outlineConnect=0;fontColor=#232F3E;gradientColor=#60A337;gradientDirection=north;fillColor=#277116;strokeColor=#ffffff;dashed=0;verticalLabelPosition=bottom;verticalAlign=top;align=center;html=1;fontSize=12;fontStyle=0;aspect=fixed;shape=mxgraph.aws4.resourceIcon;resIcon=mxgraph.aws4.s3;" parent="1" vertex="1">
          <mxGeometry x="405" y="760" width="78" height="78" as="geometry" />
        </mxCell>
        <mxCell id="VR1-NvFaAeIVhitkqFrb-5" style="edgeStyle=orthogonalEdgeStyle;rounded=0;orthogonalLoop=1;jettySize=auto;html=1;startArrow=none;startFill=0;endArrow=open;endFill=0;strokeWidth=2;strokeColor=#808080;" parent="1" source="e5_hwdFRrixaUd5XO73S-12" target="VR1-NvFaAeIVhitkqFrb-4" edge="1">
          <mxGeometry relative="1" as="geometry">
            <mxPoint x="460" y="430" as="sourcePoint" />
            <mxPoint x="415" y="424.0666666666666" as="targetPoint" />
            <Array as="points" />
          </mxGeometry>
        </mxCell>
        <mxCell id="VR1-NvFaAeIVhitkqFrb-6" style="rounded=0;orthogonalLoop=1;jettySize=auto;html=1;startArrow=none;startFill=0;endArrow=open;endFill=0;strokeWidth=2;strokeColor=#808080;exitX=0.5;exitY=1;exitDx=0;exitDy=0;edgeStyle=orthogonalEdgeStyle;" parent="1" target="VR1-NvFaAeIVhitkqFrb-4" edge="1" source="VR1-NvFaAeIVhitkqFrb-18">
          <mxGeometry relative="1" as="geometry">
            <mxPoint x="1060.5" y="458" as="sourcePoint" />
            <mxPoint x="460" y="711" as="targetPoint" />
            <Array as="points">
              <mxPoint x="1136" y="799" />
            </Array>
          </mxGeometry>
        </mxCell>
        <mxCell id="VR1-NvFaAeIVhitkqFrb-18" value="slack" style="shape=image;verticalLabelPosition=bottom;verticalAlign=top;imageAspect=0;aspect=fixed;image=data:image/jpeg,/9j/4AAQSkZJRgABAQEAeAB4AAD/2wBDAAMCAgMCAgMDAwMEAwMEBQgFBQQEBQoHBwYIDAoMDAsKCwsNDhIQDQ4RDgsLEBYQERMUFRUVDA8XGBYUGBIUFRT/2wBDAQMEBAUEBQkFBQkUDQsNFBQUFBQUFBQUFBQUFBQUFBQUFBQUFBQUFBQUFBQUFBQUFBQUFBQUFBQUFBQUFBQUFBT/wAARCALVAt8DASIAAhEBAxEB/8QAHwAAAQUBAQEBAQEAAAAAAAAAAAECAwQFBgcICQoL/8QAtRAAAgEDAwIEAwUFBAQAAAF9AQIDAAQRBRIhMUEGE1FhByJxFDKBkaEII0KxwRVS0fAkM2JyggkKFhcYGRolJicoKSo0NTY3ODk6Q0RFRkdISUpTVFVWV1hZWmNkZWZnaGlqc3R1dnd4eXqDhIWGh4iJipKTlJWWl5iZmqKjpKWmp6ipqrKztLW2t7i5usLDxMXGx8jJytLT1NXW19jZ2uHi4+Tl5ufo6erx8vP09fb3+Pn6/8QAHwEAAwEBAQEBAQEBAQAAAAAAAAECAwQFBgcICQoL/8QAtREAAgECBAQDBAcFBAQAAQJ3AAECAxEEBSExBhJBUQdhcRMiMoEIFEKRobHBCSMzUvAVYnLRChYkNOEl8RcYGRomJygpKjU2Nzg5OkNERUZHSElKU1RVVldYWVpjZGVmZ2hpanN0dXZ3eHl6goOEhYaHiImKkpOUlZaXmJmaoqOkpaanqKmqsrO0tba3uLm6wsPExcbHyMnK0tPU1dbX2Nna4uPk5ebn6Onq8vP09fb3+Pn6/9oADAMBAAIRAxEAPwD9UKKKKACiiigAooooAKKKKACiiigAooooAKKKKACiiigAooooAKKKKACiiigAooooAKKKKACiiigAooooAKKPSopriOBS0jqigZJY4FOzJclFXbJaK5LWPit4V0Nit1rNuHHVIyZCPwXNczd/tHeE7diI3ubgf3kgIH64rtp4HE1FeFNv5Hk1s4y/Du1StFP1PU6K8hX9pnwyzYNtfKP7xiGP/Qq0bL9ojwbdHEl5LbH/AKaQP/QGtJZbjIq7pP7jCGf5XUdo14/eem0Vz+j+PtA1/aLHVbWd26RiQBv++TzW8rhuVOR6iuGVOdN2mrHr0sRSrrmpSTXkx1FJkUtZnQFFFFABRRRQAUUUUAFFFFABRRRQAUUUUAFFFFABRTXkWMEswUe5rkfEHxe8IeGCV1DXrOKResaP5jj/AICuTSMKuIpUVepJL1OworxvUP2rfAdm2Iru5vPeG2cD/wAeArOP7YHg8Nj7Hqm3+95K4/8AQqXNHueW87y6Ls6yPdaK8b0/9q7wHeH97d3NmPWa2cj/AMdBrtfD/wAXPCPibaNP16zldukbSbHP/AWwf0o5l3OilmeDru1Oqn8zr6KZHMki5Vgw9jmn/XiqPSTT1QUUmaWgYUUUUAFFFFABRRRQAUUUUAFFFFABRRRQAUUUUAFFFFABRRRQAUUUUAFFFFABRRRQAUUUUAFFFFABRRRQAUUUUAFFFFABRRRQAUUUUAFFFFABRRRQAUUUUAFFFFABRRRQAUUUUAFFFFABRRRQAUUUmecUAHpWdrniHT/DtjJd6jdRWtug5aRsZ9h6muP+Jnxd07wDbmFQLzVHHyWqtjHuxwcD+dfL3ijxjqvjC+a61O6ac5+SPoiD0Udq+jy3Ja2N/eT92Hfv6HweecVYfK70aXv1O3Rep7B40/aWZvMg8N2mBnb9qulyD7qoP6n8q8g1/wAa654okLalqVxcAnITftQfRRwKxPXPJor9DwuWYXCJckbvu9z8TzDPsfmUm61R27LRB2IoHy0UV6llseBzMT86UHFFFAgUlWyvymut8M/FbxP4UZRaai88K9Le5JkT6cnI/A1yVFYVcPSrx5akUzsw+MxGEmp0JuL8mfTXgj9ovStYaG11mL+zLtuDNkGEn65yPxr12C5iuo0kidZI2GVZTkEV8EcYx1+vNdx8Pfizq/gO5SMSPe6Zn5rOR+BzyVOOD1r4zMOHU06mFevb/I/Ucm44nFqjmKuv5v8AM+xaK5/wf410zxtpaXunT7x0eJuHjb0IrfzXwU4SpycJqzP2WjWp4imqtKV4vqhaKKKg2CiiigAooooAKKKKACg0delcR8T/AIsaP8L9HNzqD+bdyAi2s4zl5Wxx24HqT0/SjzMK9enhqbq1XaKOs1HU7XSLOS5vbiO1t4xl5JmCqo9ya+ffiJ+11YaeZbTwpa/2hcDgXtwuIB7gAhm/SvA/iR8Wte+Jl+0moTtDYg/utPif93GM8Z4G447muLrnlU7H5PmvF1Wo3TwXurv1/wCAdd4t+LHirxszjVNYneBiT9mhYxxe3yjg4981yBAbqPx70tFY8zPz+piK1eTnVm2/Nh9eaKKKk5vMOfWhflbcOD7UUUDuzrfCPxY8V+CGH9laxcJCOltMxki/75PA/CvoP4eftbafqTQ2vii0OnXLEKby3XMHJ7gkso/Ovk+kwM571pGo0e/gM8xuAkuSd49nqj9NNO1S01e0jurKeO6t5F3JJEwZWB7girORX57/AA4+LWv/AAzv1l06cz2RP72wmb93J/8AEn3HoK+0vhj8VtG+KGji60+TyrqPAuLOT78R/qPQiumM1I/Xcn4gw+aL2b92fb/I7eij8KKs+rCiiigAooooAKKKKACiiigAooooAKKKKACiiigAooooAKKKKACiiigAooooAKKKKACiiigAooooAKKKKACiiigAooooAKKKKACiiigAooooAKKKKACiiigAooooAKKKKACiiigAooooAK8y+L3xWi8DaabOzdZNZuEIjXr5Qx99h9egrqfH3jS38D+G7nUpxvZQFij3Y8xycAV8Z61rV54i1W41G+l825nbc7Y/AAegAr6jJcr+uT9rUXuL8T884s4g/s2l9XoP95L8EQ319capeS3V3M9xcSsWeSRiSSagoor9RjFRSS2P59nKVSTnN3bCiiiqICiiigAooooAKKKKACiiigDb8H+MdR8E6sl9p8xXB+eFidki+jDvX2B4J8a2HjjRYr+xcnd8skbfejbupFfEldj8LfH9x4B8Rwz5aSxnIjuY88bSR8w9x19+lfMZzlUcZB1aa99fiffcMcRTyysqFd3pS/A+zKKr6ffRalaQ3MDiSGVBIjL0IIyKsV+WPR2Z/REZKaUo7MKKKKRQUUUUAFGcc0VleJ/Edn4T0G+1a+kEdraRNK5z1AGcD3PT60bETnGnFzk7JHL/ABe+Kth8LfDjXs5Et9LlbW1B+aRvU/7IyMmvhXxT4o1TxlrM2qatctc3Uvck4UDoAOw9q0viR4+v/iN4qutWvCURm2QQbsiKIH5VHT6k46muWrknPm2PwfPs6nmVZwh/DW3n5i8+tFFFZHyQUUUUAFFFFABRRRQAUUUUAFa3hXxTqXg3XLfVdKuGguoWB4Jw4yCVYZ5BxWTRR5o0p1JUpqcHZo/QD4R/Faw+J3h1LqFhFqEIC3VrnmNsdR6qexrva/On4c+Pr/4ceKLbV7Il1U7bi3zgTx91JwceoPqBX6A+GfEVp4q0O01SwlE1pcoHRh+uffPH4V2QlzI/deH84WZ0eSo/fjv5+Zq0UUVofXhRRRQAUUUUAFFFFABRRRQAUUUUAFFFFABRRRQAUUUUAFFFFABRRRQAUUUUAFFFFABRRRQAUUUUAFFFFABRRRQAUUUUAFFFFABRRRQAUUUUAFFFFABRRRQAUUUUAFFFFABSMcKT2pa5b4l+JB4U8F6pfhtkwhZIf+uhGF/X+VaU6bqTVOO7OfEVo4ajKtPaKufO/wAePHB8UeK3sIJc2OnExKoPDSdGPv6fhXmbctnoPSleRpnZ3JZmJJJ6k+tJX7ZhMPHC0I0Y9D+Usxxs8wxU8TUd22FFFFdZ5gUUUUAFFFFABRRRQAUUUUAFFFFABR9eaKKAPov9m7xw99YTeH7uTMlqPMtyx5MfdfwP869yr4d8E+In8J+KtP1ROFhk/eAfxIchh+RNfbtvMtxBHKpDK4BBFflef4P6tieeK0lqf0NwZmbxuC9hN+9T0+XQlooor5g/QgooooAK+T/2uPiM15qVt4Ss5dsMGJ7vafvOR8iH2AOce49K+n/EWsweH9DvtRuWCQ2sLSuSccAZr84td1q48Sazeapdndc3UrSuT6nnH0FY1JWR+f8AF2YPD4ZYaD1nv6FD680UUVyn4uFFFFABRRRQAUUUUAFFFFABRRRQAUUUUAFfR37I/wAR3s9SuPCV7L/o8wa4syx+6/G5B9Rzj2PrXzjWh4f1ufw7rmn6pA2JrOdJ17ZKsDj6HFXCXKz18pxssvxcK8fn6H6WBunrS1meG9Yh8RaDp2p2xzBdwJOv0ZQf61p12n9HU5qpFTjs9QooooLCiiigAooooAKKKKACiiigAooooAKKKKACiiigAooooAKKKKACiiigAooooAKKKKACiiigAooooAKKKKACiiigAooooAKKKKACiiigAooooAKKKKACiiigAooooAQ14T+1FrQTT9I0pT80spuHX2UED9WP5V7v+tfK/wC0hfG68epBnIt7ZF/Ekn+o/KvoMioqrjot9NT4jjDEOhlNRL7VkeVUUUV+tn83BRRRQAUUUUAFFFFABRRRQAUUUUAFFFFABRRRQAY3Lt9eK+xfgzrn9v8Aw90qZjmSNPIb1Gwlf5AfnXx105xmvpT9mG+EnhW/tM5MVzu+gKjj9K+T4kpKWFU7fCz9G4FxDpZi6XSSPaaKKK/MD+ggoooI3Ag0AeL/ALV/iD+x/hjJZocS6jPHBjvtDByf/HcfjXxUea+lf2zdU8y88N2IOAqTTMPqVA/kfzr5qrkqO7sfhHFdf22ZSj/KkgooorI+OCiiigAooooAKKKKACiiigAooooAKKKKACk9/SlooA+1P2U/En9tfDGKzdsy6dO8G0nJ2n5l/wDQiPwr2mvlf9jHUtl94ksCeHWGZB6YLA/zFfVFdsHdI/oXh+u8Rl1KT3St9wUUUVZ9GFFFFABRRRQAUUUUAFFFFABRRRQAUUUUAFFFFABRRRQAUUUUAFFFFABRRRQAUUUUAFFFFABRRRQAUUUUAFFFFABRRRQAUUUUAFFFFABRRRQAUUUUAFFFFABRRRQAfpXyD8dpGb4m6qD0URAf9+1NfXx54r5J/aAt2g+JV6zDHmxRuPf5cf0r6rhy31y3kfnHHSbyyLX8yPOKKKK/UT+fgooooAKKKKACiiigAooooAKKKKACiiigAooooAK9/wD2WZMpr8f8KtC35hv8K8Ar3v8AZW/1niL/ALY/+z185n/+4y+R9pwe2s4p/M+gqKKK/Jz+lAooooA+O/2xp93xC0uLsunq35yP/hXg1e6fthZHxK0//sGJ/wCjJK8Lrjn8R/PHEDbzOt6hRRRWZ88FFFFABRRRQAUUUUAFFFFABRRRQAUUUUAFFFFAHvX7HcxXx/qsfZ7At+Tr/jX2HXxt+x9/yUrUB/1Dm/8ARiV9k110/hTP3XhNt5bH1YUUUVqfZhRRRQAUUUUAFFFFABRRRQAUUUUAFFFFABRRRQAUUUUAFFFFABRRRQAUUUUAFFFFABRRRQAUUUUAFFFFABRRRQAUUUUAFFFFABRRRQAUUUUAFFFFABRRRQAUUUUAFfNn7UGltH4i0vUMYSaAw5x3Vif/AGavpI9K8t/aI8OnWfAbXaDMunyC4PHJQAhvoMHP4V7OT1/YY2Ens9PvPk+KMI8XlVWEd1r9x8q0Uc0V+wn8xhRRRTAKKKKACiiigAooooAKKKKACiiigAooooAK97/ZX/1niH/tj/J68Er3v9lf/WeIf+2P8nr53Pv9xn8j7PhD/kcUvmfQVFIvSlr8lR/SoUUUUwPjf9sL/kpWnf8AYNT/ANGSV4VXuv7YX/JStO/7Bqf+jJK8Krjn8R/O+f8A/IzreoUUUVmfPhRRRQAUUUUAFFFFABRRRQAUUUUAFFFFABRRRQB7r+x9/wAlK1D/ALBzf+jEr7Ir43/Y+/5KVqH/AGDm/wDRiV9kV2U/gR+68Jf8ixerCiiitD7MKKKKACiiigAooooAKKKKACiiigAooooAKKKKACiiigAooooAKKKKACiiigAooooAKKKKACiiigAooooAKKKKACiiigAooooAKKKKACiiigAooooAKKKKACiiigAqpqumw6vptzZTruhuImiceqsCCP1q3Sdqabi00RKMZxcWtGfDfjDw7N4V8SX+lzA5hkIVv7y9VP5YrHr6S/aG+Hp1jS11+yhL3lou2ZVHMkeev/Af5Zr5s4PTkV+xZVjVjcNGfVaM/l/P8rlleOnTa916r0Fooor1z5oKKKKYBRRRQAUUUUAFFFFABRRRQAUUUUAFe9/sr/6zxD/2x/k9eCV73+yv/rPEP/bH+T187n3+4z+R9nwh/wAjin8z6BXpS0i9KWvyVH9KhRRRTA+N/wBsL/kpWnf9g1P/AEZJXhVe6/thf8lK07/sGp/6MkrwquOfxH875/8A8jOt6hRRRWZ8+FFFFABRRRQAUUUUAFFFFABRRRQAUUUUAFFFFAHuv7H3/JStQ/7Bzf8AoxK+yK+N/wBj7/kpWof9g5v/AEYlfZFdlP4EfuvCX/IsXqwooorQ+zCiiigAooooAKKKKACiiigAooooAKKKKACiiigAooooAKKKKACiiigAooooAKKKKACiiigAooooAKKKKACiiigAooooAKKKKACiiigAooooAKKKKACiiigAooooAKKKKAI5oVmjZGG5WGCp718p/Gf4VTeC9UfULCLOj3DfLt58luu08cD0r6wqlq+k2uuafPZXkSzWsyFHjbuD1r1cuzCeX1lOOq6o+bz3JaWc4Z05aTWzPg6lr0n4qfB298D3Ut7ZK93o7tkMoy0PJ+VueRz1rzb0r9bw2KpYukqlJ3R/NmOwFfLazoYiNmgooorrPOCiiigAooooAKKKKACiiigAooooAK97/ZX/ANZ4h/7Y/wAnrwSve/2V/wDWeIf+2P8AJ6+dz7/cJ/I+z4Q/5HFL5n0CvSlpF6UtfkqP6VCiiimB8b/thf8AJStO/wCwan/oySvCq91/bC/5KVp3/YNT/wBGSV4VXHP4j+d8/wD+RnW9QooorM+fCiiigAooooAKKKKACiiigAooooAKKKKACiiigD3X9j7/AJKVqH/YOb/0YlfZFfG/7H3/ACUrUP8AsHN/6MSvsiuyn8CP3XhL/kWL1YUUUVofZhRRRQAUUUUAFFFFABRRRQAUUUUAFFFFABRRRQAUUUUAFFFFABRRRQAUUUUAFFFFABRRRQAUUUUAFFFFABRRRQAUUUUAFFFFABRRRQAUUUUAFFFFABRRRQAUUUUAFFFFABRRRQBFcW8dxE0cqq6MCCrDII9MV4d8Rf2dYrwzX/htkt5idzWUnEZ/3Djj6dPpXu1GPzrtwuMrYOXPSlY8fMcqwuaUnTxMb+fVHwhrOhah4evDa6jZzWkw/hkQjPPUHvVAHp2zX3ZrXh3TvEFqbfUbSK6iP8Mi5/Ee9eU+Jv2Z9I1AmTR7yTSj/wA83UzJ+GWBH5mvusLxJRmlHER5X36H5BmHAuKotywcuddno/8AI+aqK9Q1f9nXxVp7N9lWDUU7eW4Rj+DEfzrmrr4U+LrNiJdBuuP+eYD/APoJNfRU8ywlRXjUX3nxNbJcxoO1ShL7jlKK3j4B8SqSDoOpZ/69XP8ASk/4QLxL/wBADUf/AAFf/Ct/reH/AOfi+84/qGL/AOfUvuZhUVu/8IF4k/6AOo/+Ar/4Uf8ACBeJP+gDqP8A4Cv/AIUfWsP/AM/F96D+z8X/AM+pfczCord/4QLxJ/0AdR/8BX/wo/4QLxJ/0AdR/wDAV/8ACj61h/8An4vvQf2fi/8An1L7mYVFbv8AwgXiT/oA6j/4Cv8A4Uf8IF4k/wCgDqP/AICv/hT+t4f/AJ+L70P+z8X/AM+pfczCr3v9lf8A1niH/tj/ACevIf8AhA/En/QB1H/wFf8Awr279mvQNT0OTXf7Q0+5shJ5Oz7REybsbs4yPcV8/nmIo1MFKMJpvTqfX8J4PEUs2pynTaWvQ9yooor8uP6JCiiigD43/bC/5KVp3/YNT/0ZJXhVe6/thf8AJStO/wCwan/oySvCq45/Efzvn/8AyM63qFFFFZnz4UUUUAFFFFABRRRQAUUUUAFFFFABRRRQAUUUUAe6/sff8lK1D/sHN/6MSvsivjf9j7/kpWof9g5v/RiV9kV2U/gR+68Jf8ixerCiiitD7MKKKKACiiigAooooAKKKKACiiigAooooAKKKKACiiigAooooAKKKKACiiigAooooAKKKKACiiigAooooAKKKKACiiigAooooAKKKKACiiigAooooAKKKKACiiigAooooAKKKKACiiigAowKKKAD1pMfT8qWigBNo9KNq+lLRTuTyoTaPT9KNo9P0paKLhZdhNo9P0o2j0/SloouFl2E2j0/SjaPT9KWii4WXYTaPSjaKWigdgooopDCiiigD43/AGwv+Slad/2DU/8ARkleFV7r+2F/yUrTv+wan/oySvCq45/Efzvn/wDyM63qFFFFZnz4UUUUAFFFFABRRRQAUUUUAFFFFABRRRQAUUUUAe6/sff8lK1D/sHN/wCjEr7Ir43/AGPv+Slah/2Dm/8ARiV9kV2U/gR+68Jf8ixerCiiitD7MKKKKACiiigAooooAKKKKACiiigAooooAKKKKACiiigAooooAKKKKACiiigAooooAKKKKACiiigAooooAKKKKACiiigAooooAKKKKACiiigAooooAKKKKACiiigAooooAKKKKACiiigAooooAKKKKACiiigAooooAKKKKACiiigAooooAKKKKACiiigD43/bC/5KVp3/AGDU/wDRkleFV7r+2H/yUzTh/wBQxP8A0ZJXhVcc/iP53z//AJGdb1Ciiisz58KKKKACiiigAooooAKKKKACiiigAooooAKKKKAPdf2Pv+Slah/2Dm/9GJX2RXxv+x9/yUrUP+wc3/oxK+yK66fwI/deEv8AkWL1YUUUVqfZhRRRQAUUUUAFFFFABRRRQAUUUUAFFFFABRRRQAUUUUAFFFFABRRRQAUUUUAFFFFABRRRQAUUUUAFJn8aq6hqltpdrJcXcyW8CDLSSMABXjnjD9pPTdPZoNBtv7Tl5H2iQlI1+gxlv0+tduGwdfFy5aMbnkY/NsJlsebEzS/M9t3qOSQKy9T8VaRov/H9qVra/wDXaZU/ma+SPEXxb8U+JZGM+qS28R6Q2v7tR+XJ/E1yEkryszSOXZjkliSSfWvqqHDFSWtadvQ/OsZx9Si2sLSb83ofY118ZPB9qxDa1AxH/PPLj8wDVNvjx4KU4Orj/vzJ/wDE18hc+tHcmvSXDOH6zf4HhS49xzelOP4n15/wvrwT/wBBgf8AfmT/AOJo/wCF9eCf+gwP+/Mn/wATXyHRVf6s4X+Z/h/kT/r7mH8kfx/zPrz/AIX14J/6DA/78yf/ABNH/C+vBP8A0GB/35k/+Jr5Doo/1Zwv8z/D/IP9fcw/kj+P+Z9ef8L68Ff9Bcf9+ZP/AImj/hfXgv8A6C3/AJBk/wDia+Q6Wj/VnC/zP8P8g/19zD+SP4/5n13/AML68E/9Bgf9+ZP/AImj/hfXgn/oMD/vzJ/8TXyHRR/qzhf5n+H+Qf6+5h/JH8f8z68/4X14J/6DA/78yf8AxNH/AAvrwT/0GB/35k/+Jr5Doo/1Zwv8z/D/ACD/AF9zD+SP4/5n15/wvrwT/wBBgf8AfmT/AOJo/wCF9eCf+gwP+/Mn/wATXyHRR/qzhf5n+H+Qf6+5h/JH8f8AM+vP+F9eCv8AoLj/AL8yf/E0f8L68F/9Bb/yDJ/8TXyHS80f6s4X+Z/h/kH+vuYfyR/H/M+u/wDhfXgv/oLf+QZP/iaP+F9eCf8AoMD/AL8yf/E18iUlH+rOF/mf4f5B/r7mH8kfx/zPrz/hfXgn/oMD/vzJ/wDE0f8AC+vBP/QYH/fmT/4mvkOij/VnC/zP8P8AIP8AX3MP5I/j/mfXn/C+vBP/AEGB/wB+ZP8A4mj/AIX14J/6DA/78yf/ABNfIdFH+rOF/mf4f5B/r7mH8kfx/wAz68/4X14K/wCguP8AvzJ/8TR/wvrwX31b/wAgyf8AxNfIdLzR/qzhf5n+H+Qf6+5h/JH8f8z6+j+OvgqZsLrCj/eicfzFadl8VPCmoY8nXLLP/TSUJ/Ovi71z0pBxms58M0Gvdm/wNYcfY1P36cX95962uo299GJLeeKaM9GjcEGrAYGvg/T9Yv8ASJPNsbye0k/vQyFT+hr0Twv+0J4l0NkS+Mer24wCJQEfH+8B/MGvIxHDeIp60ZKX4H0uC48wlZqOJpuHnuj6tHNFef8Agv40eHvGhjhWb7FfnH+jTHGT6BujV3yuG6c18tWo1MPLlqxsz9FwuMw+Nh7TDzUl5DqKKKwOwKKKKACiiigAooooA+N/2xP+Smaef+oan/oySvCq90/bD5+Jmnf9g1P/AEZJXhdcdT4z+eM//wCRnW9QooorM+eCiiigAooooAKKKKACiiigAooooAKKKKACiikoA92/Y9/5KVqH/YOf/wBGJX2RXxv+x7/yUm//AOwa/wD6MSvsiuul8KP3XhL/AJFi9WFFFFan2YUUUUAFFFFABRRTWkC5ycfjQGw6kzXlnxF/aI8L+ATLbLcf2rqi8fZLU5wf9psYX+ftXzr4y/ah8Y+Jd8WnyR6BbNxttcPJj3cjr7gCs3NRPmMfxFgcA+SUuaXZH2jf6vZaXEZby6htYx1eWQKPzNcpqPxs8EaW22bxLp7EHBEMwkx/3zmvgbUtZv8AWZzNf3txezHrJcSlz+tUsdu1ZuqfGV+NqjdqNL7z7wf9pL4epJs/t9Cf9mGQj/0Gr9j8evAeoSBI/EdmrH/nqxjH5tivgD9KNq5HFL2jOSPGmMv70EfpTpPirRtdXOnapZ3oxn/R51f+RrTVwygg1+ZFvcS2kiSQSvDIvIeMkMPoa9C8I/tAeNvCUiBdXk1K3XGbe+HmA47bj8w/A1SqLqj2sLxpRm0sRTt5o+98g0V4J8P/ANrLQvEDR23iGD+wrs8CTcZYWP1wNv4/nXulnewX1uk9vMk8LjcskbbgR68VsmnsfdYTMMLjo82Hmn+ZPRSc5PHFLTPRCiiigAooooAKKKKACiikagAyBz+dcP8AEb4raX4AsyJT9q1F1PlWsZGc44LegrO+LnxXt/Adj9mtds+rzDMcWfuDOC7f4d6+VdS1K61i+lvLyd7i5lO55HOSTX1eUZLLGfva2kPzPzjiTiqOW3w2G1qd+i/4Jt+M/iBrPji6aXUbpvJzlLWPIjT8P6mub9c85pOaWv0mlRp0IqFONkj8HxGIrYqo6taTk33CiiitzmCiiigAooooAKKKKACiiigAooooAKKKKACiiigAooooAKKKKACiiigAooooAKKKKACiiigApD+QpaKABSVIIJDdiDXrPw3+PWo+G5YrPWWfUdNzjzDzNFz6k8gc9ea8mpPpXDisHRxkOSrG56mX5nissqKrhpWf5n3douuWfiHTob6wnW4tphuWRDn/ACa0K+M/hx8S9Q+HupB4i0+nSN+/tN2A3uvHB/nivrnw/wCILLxLpcF/YTLPbzLuVh/L61+WZnllTL6neL2Z/Q2QcQUM5pdqi3X+Rp0UUV4p9cFFFFABRRRQB8bfthf8lM0//sGJ/wCjJK8Lr3T9sMf8XM0//sGJ/wCjJK8LrjqfGfzvn/8AyM63qFFFFZnz4UUUUAFFFFABRRRQAUUUUAFFFFABRRRQAUlLSUAe7fse/wDJSb//ALBr/wDoxK+yK+N/2Pf+Sk3/AP2DX/8ARiV9kV10vhR+68Jf8ixerCiiitT7MKKKKACikzWP4s8Vaf4N0K61XU51gtrdCx55Y9lA7k+lGxnUqRpxc5uyRJ4i8Tad4T0qfUtVuo7OzhGWkc/kPc5r5A+LX7Smr+NZprDQ2k0nRTkbh8s8wx3IPA9hXIfFb4tar8UdZaa5YwaZC5FrZKflQdmPAyx9TXCevpXNOpzaI/G884lqYuToYV2h36sXljliWb1NH+OaKKwPgLtu7CiiigQUUUUAFFFFAB+td38NfjJ4h+Gd5H9iuWudN3ZlsJyWjIzzt5+Vsd/zBrhKKabR1YfE1cLUVSjKzR+g3wx+K2jfE7SxcadL5d1GAJ7OUgSRH3GenoRXbZ68V+a/hnxRqfg/WIdU0q6a1vIujDkEehB4Ix2Nfcvwd+Lun/FPQVmjC2+qQjF1Z5JKnswyBkH/AOtXVCfNuftGQ8QRzFKjX0qL8T0Sik3fnS1qfbBRRRQAmaTml20poATdXLfEXxxbeBPDc9/MQ1wwKW8Pd5CDtH0459s107HbkngDnNfI3xp8dN4w8WSxQy7tPsiYoQrZDH+J/wCn0FezlOA+v4hRfwrc+T4kzdZRg3OPxy0X+Zxetazd+INUudQvZTLcTuXYnt7D0AHFUqKK/YIRVOKhFWSP5nqVJVpupN3bCiiiqMwooooAKKKKACiiigAooooAKKKKACiiigAooooAKKKKACiiigAooooAKKKKACiiigAooooAKKKKACiiigAooooAT9a9H+DfxMfwNraW105bSLt1WRevlsSAHHPA9fpXnNHO4c8d/euTFYaniqTpTWjPQwGNq5fiI4ik9Uz75jmSZEdCGRhuDKcgg96fmvIf2e/HT+INAfSLxi13p4URljy0XRT+HT8q9eAr8axWHlhK0qM90f1NluOp5lhYYmns19zDHvS0UmPeuQ9IM+1LSE0dutAHxv8Athf8lM07/sGJ/wCjJK8Lr3T9sL/kpmnH/qGJ/wCjJK8LrjqfGfzvn/8AyM63qFFFFZnz4UUUUAFFFFABRRRQAUUUUAFFFFABRRRQAUlLSUAe7fse/wDJSb//ALBr/wDoxK+yK+N/2Pf+Sk3/AP2DX/8ARiV9kV10vhR+68Jf8ixerCikxRj3rU+zFopPakK+9ADJplhjeSQhEUZLMeBjrXw38fPi9J8S/ETWtnIw0GybFuMkea2OZD6+3t9a9w/ao+JT+GfDcegWMnl32qA+YyNgpCCN3/fX3fpmvjoDaAPTpWFSXQ/J+Lc3cpfUKL06/wCQvHJ6miiiuY/LwooooAKKKKACiiigAooooAKKKKACt/wL4zv/AAD4ms9Y06QpJCw8yPtLHkbkb6gfyrAooTaZtRqzoTVSm7NH6O+CfF9j448N2WsWL5huEDFT95G7qw7EHNb+a+OP2VviU/h3xSfDd5J/xL9TbMO44EUwUn/x4DH1Ar7FGD0Oa7Yy5kf0JkuZLM8JGr9rZ+o+kyKSl2+9We8NpaSigDiPjJ4qPhPwNe3EMmy6mAgh7HLHGR9Bk/hXx56euOte3/tPa552raVpSN8kMbTyL7sQF/Hg/nXiFfqfD+H9jhPaPeR/O3GmOeKzF0U/dhp8+oUUUV9QfABRRRQAUUUUAFFFFABRRRQAUUUUAFFFFABRRRQAUUUUAFFFFABRRRQAUUUUAFFFFABRRRQAUUUUAFFFFABRRRQAUUUUAFJS0UAdP8M/FDeEPGWnX+8rb7/KnyeCjcc/TOfwr7TjcOgYcgjIr4E75zX2d8KddbxF4D0m7dt0gi8pyeu5TtOfyr4DibDJOGIXXRn7LwDjm1Vwcn5r9TrqPxpKK+DP2MUnNHtSUtAHxz+2F/yUrTvbTE/9GSV4VXuv7YX/ACUvTx/1DE/9GSV4VXHU+M/nfP8A/kZ1vUKKKKzPnwooooAKKKKACiiigAooooAKKKKACiiigAooooA90/Y+/wCSkah/2Dn/APRiV9jV8c/sff8AJSNQ/wCwc/8A6MSvsauul8KP3XhL/kWL1YtLkU2itT7MdnNRyzCGN3Y4Cgkn2p3rXC/G/wAQf8I18L/EN15hSWS1e3jYHBDuCgI9wTn8KOlzmxNZYejKq+iufGPxg8ZP44+IWraj5he2ErQW/PAjQ4U498Z+prjaOvJ5Jorhk7u5/NGIryxFaVWe8ncKKKKk5wooooAKKKKACiiigAooooAKKKKACiiigCS1upbG4juYHaKeI7o5FOCpHIP51+iXw58UxeNPBmlazGRm4hBcKfuuOGH/AH0DX5019Z/sc+I/tXhnV9Fd9zWdwJUBPRXHQe2QfzralKzsz77g/GOljHQe01+KPoil3UnHrRx611H7UJRRRQJ7Hx/8btQOo/EjVD1SErCv4KM/rmuFroviNMZvHWvtnOL6Zfyciudr9twMVDC04rsj+Tc1m6mOqyl1kwoooruPKCiiigAooooAKKKKACiiigAooooAKKKKACiiigAooooAKKKKACiiigAooooAKKKKACiiigAooooAKKKKACiiigAooooAKKKKAEr6Z/Zl1A3Hg++tmfcYLtsD0BAP8818zV9A/stSBoNdj7K8Tfnu/wAK+a4hipYKTfRo+64LqOGbQS6pnvVFFFflJ/RwUtJRQB8dfth/8lK04/8AUMT/ANGSV4VXun7YWT8SNO4/5hqZ/wC/j14XXFP4j+d8+/5Gdb1CiiioPnwooooAKKKKACiiigAooooAKKKKACiiigAooooA91/Y/wD+Skah/wBg5/8A0YlfYtfHX7HwP/CyNROOP7Of/wBGJX2LXXS2R+68Jf8AIsXqwooorU+zFrwP9sPVPsvgPTLMNh7m/UlfVVR8/qRXvZ6HFfM37aExS28MRdmkmb8gg/rUT2Pm+IpuGWVWux8vCiiiuI/nsKKKKACiiigAooooAKKKKACiiigAooooAKKKKAE6V7l+yLqn2P4lXlqzbUurFwF9WDoR+m6vDq9T/ZlmMXxi0kdpI5k/8cJ/pVw+JHuZJN08woyXc+56KWkrtP6MCg0UtAmfFXxKt/s/jzX1K7SbyR/zYn+tczXonx8006f8SLx+i3MaTKMe2D+qmvO6/a8BL2mFpyXZH8oZxSdHMK0H/Mwooor0DxwooooAKKKKACiiigAooooAKKKKACiiigAooooAKKKKACiiigAooooAKKKKACiiigAooooAKKKKACiiigAooooAKKKKACiiikAV9B/stwYstcmx8rSxru+gPH618+fpX1F+zZpptPALXJH/AB9XLuOOwAX+amvmuIqijgnHu0fecFUnUzWMl0TZ6xRRRX5Uf0YFB6etFFAHyL+2PamPxpo1wRgSWRTPurk/1r5/r6o/bM0d5tK8P6oq/LBNJAzY/vgEf+gGvleuOpufgPE1N08yqPvqFFFFZnyoUUUUAFFFFABRRRQAUUUUAFFFFABRRRQAUlLSUAfQP7HFuz+NNZnA+VbMJn6uP8K+u6+bP2M9IeLS/EOqMvyzzxwK2P7ikn/0MV9J12U9kfvnDFP2eWU79bsSiiitD6wK+X/20fveFM883P8A7Tr6gr5f/bS+94U/7eP/AGnWdT4WfLcTf8iup8j5looorjPwAKKKKACiiigAooooAKKKKACiiigAooooAKKKKAEr1j9mC2M3xg09guRFDNJ9Plx/WvJ/rXv37HekvceNtV1ErmK3svKLejO6kD8kNXD4ke7kdJ1cxopdGfX1JRRXaf0WFFFFAHgv7T3h8yW+la1Gvyxs0ErDng8r+ufzr5/r7Y8feF08X+E7/S2IDSplGIzhwQVP5iviue3ltJpYJkMc0bFXRuqEdRX6Zw5ilVw7ot6x/I/n/jfL3h8csTH4Z/mR0UUV9efm4UUUUAFFFFABRRRQAUUUUAFFFFABRRRQAUUUUAFFFFABRRRQAUUUUAFFFFABRRRQAUUUUAFFFFABRRRQAUUUUAFFFFABRRRTAVUMjBEBZm4AXqc19ueCNBHh3wppmn7QGghUNt6burfqTXzF8D/CLeKfGttM6A2diRPKe2cHav54/I19cqNqgdhX51xNiuapGhH7OrP23gLL3TpTxk18Wi9BaKM0V8QfrYUtJRQB51+0B4VfxZ8L9YtoU33EKLcxKBkgxsGIHuQCPxr4KHNfpxJGJUKH7rDBFfnv8WvBD/D/AMdalpQQi23+base8Tcj8uR+FYVVpc/KeM8E7wxcV5M4+iiiuY/LQooooAKKKKACiiigAooooAKKKKACiiigAo74HJ7UV2Pwh8Dy+PvH2l6YFzbrIs90cHiFGBb8/u/jTWrOnD0ZYirGlBat2PsP4A+GG8LfC/RoZUCT3KfapRjnc/zDPuBgfhXo1MgiS3hSJPlRQFAHoBin13LRH9K4WisNQhRXRWCiignFM6gr5g/bS+94U/7eP/adfT/WvmD9tL73hT/t4/8AadZ1PhZ8rxN/yK6vyPmSiiiuM/AQooooAKKKKACiiigAooooAKKKKACiiigAoopKAF619k/sl+F30j4ey6nMm2bU7gyDI58tflX9Q3518keGfD134r8QWOj2ak3V3J5acdO5J9gAT+Ffov4e0W38PaHZabartgtIliUewGM10Ul1P0fg7BOpiJYuW0Vb5s0aKKK6D9hCiiigA/lXzR+0L8Pv7H1YeILSPFrdHbOFXhJMdfoQPzFfS9Z3iDQbPxJpF1p17GJLa4QowPbI6j0Ir08uxksDXVVbdfQ+fzzKoZthJUH8W6fmfC3PORgdKK6X4geB7zwJr01ncKzW7sWt58YEiZ479R3Fc1X7FRrQr01Ug7pn8w4nD1cLVlRqq0kwooorY5QooooAKKKKACiiigAooooAKKKKACiiigAooooAKKKKACiiigAooooAKKKKACiiigAooooAKKKKACiiigAooooDzCnQxtNIiRqXkZgqqvJJJxxTc8Zr3P4CfCpri4j8R6tEREhzaQyLyzAj95+GOBivNx2Mp4Kg6kvl5s9nKMsq5tiVQpLTq+yPS/g94ETwP4WiSVcahdfvrhvQ44X6D/Gu8o2gdBiivxytWlXqOrN6s/qPB4WngsPChTWkVYMc0ZooxWJ2BRRRQAHoa8T/AGnPhifGHhT+2bOLOqaWjSEKMmSEAl1HqR1H4+te2U14xIrKRlSMbe1Jq6scOOwkMdQlQqbM/Mf68UV7b+0Z8GJPBerTeINKt86JdvumVBxbSE9Mf3STx6Hj0rxKuKS5Wfztj8DVy+vKjVWwUUUVJ5wUUUUAFFFFABRRRQAUUUUAFFFJ9OtAC9x2NfZ37Mfwv/4Q3wv/AGxfQmPVdTAbaw5ii6qvsT1P4elePfs5/Bh/GmrR69qsH/EitHzGki5F046Ac/dU8+/SvstFCqFAwo6CumnHqz9W4Tydxf16uv8AD/mOooorc/UgooooAOlfMH7aX3vCn/bx/wC06+n6+YP20vveFP8At4/9p1nU+FnyvE3/ACK6vyPmSiiiuM/AQooooAKKKKACiiigAooooAKKKKACiiigAoWgcjIr0b4KfCW7+J3iSPzEaLRrR1e7uMcMAQfLHPVhnnt1ppXdjswmFqYyrGjSV2z1v9k/4XtDHJ4v1GIK75isEYdF6PJ+OSo9s+tfTNV9N0+DSbGCztY1htoEWOONRgKoGAKsV2xjyo/ofLMBDLcNGhHdb+bClpKKo9UKKCaAaACiiigDnfG3gfT/AB1oslhfof70cyAb429RXyV448Can4E1ZrS/jzGSfJuFU7JB7Hsfavtes3XvDeneJ9PksdStlubdwRtYcj3B6g/SveyvNqmXz5XrDt/kfGcQcN0c5h7SHu1Vs+/kz4WyP60tes/ED4Aan4f8270XdqljuLeUB+9jGenX5vr19q8nkjeJiroyuDgqwwR+Ffp+FxlDGR56Urn8/wCPyvFZbU9liYW/L5CUUg5pa7jygooooAKKKKACiiigAooooAKKKKACiiigAooooAKKKKACiiigAooooAKKKKACiiigAooooAKKKOT0GRQAUdx69hWjoPh3U/E14ttpdnJdzHtGOF+p6D86+hfhv8ALTQ2j1DXWS/vVw0cAX93Ec9+fmNeRjs0w+Bj77vLsfS5TkOMzaolTjaPVvY4r4RfBGXX5YNX1yEw6cvzRWrDDTehYEcL/ADr6UhhSCNI0QKijAUDgU9UWNQqgKo6AU6vy3HY+rj6jnU26I/oXJ8nw+T0fZ0lr1fcKKKK8094KKBzRQAUUUm2gBaP0oJoBoAqatpdrrdhPZ3sKXNrMpWSKRQVYe9fFfxs+At/8N7p9Q02OS98PucBx8zwez4HT0P519vnPriorq0ivreSC4jWaGRSrRuMqQeCD7YqJRTPAzfJ6ObUuWeklsz8ygQe9FfT/AMWP2VPtE0+qeEGWN2JdtMfgMe+xiePoePpXzXq2j32h3r2eoWk1ncx/fimUqw/OuWUXE/D8wyrFZdUcasdO/RlSikHTng0tQeMFFFFABRRRQAUUh44x+lXNJ0e916+jstPtJr26kbasUK5J5xQtdi4wlOSjFXZUzt57+3Net/BP4C33xGvI9R1BJLLw9GwJk6NcYI+VMjp1BNeifCf9lMQPBqfjArKVwyaWvKg9jIwbB+g49zX0rb2kVnCkMCLFEgCqiKAFA7CuiNP+Y/Ssj4WnOUa+NVl0X+ZBpOlWuh6db2NjAtvawII440GAqjpV0Un3aUGug/WYxUIqMVZIKKKKCgooooATdXzD+2l97wp/28f+06+n6+YP20T83hT/ALeP5R1nU+FnyvE3/IrqfI+ZKKKK4z8BCiiigAooop2AKKKKQBRRRQAUUUhyoJIoAWk9e1TW1rNeXCQW8Mk8zkKscaFmYnsAK98+FX7Kuoay8GoeK2NhZ5Df2eP9bKAc/MQflHt1+lUouR6mByzE5hPkoRv5nnnwp+D+rfFLVQlsrW2lRMBc3rKcAdwn95vb86+4fB/hHTvBOg22laXAILaEf8CYnqzHuTV3RdDsfD2nwWOnW6WlrCoWOOMYAFXSK64xUT9tyXI6WVU77ze7FopA1LVn04UUUUABGaKQ0bqAFoFFIp7UALRRQeaADaD15+vNcj4u+F3h/wAZKzXtmEuSOLqDCSD8cc/jXXU3rWtOrOi+aDs/I5a+Fo4qPJWipLzPnTxJ+zLf28jNomoRXEfXy7s7W/Ahef0rz/VvhP4s0dmE2i3EoX+K3XzAfyr7M+pzQSGxkDFfRUeIMXSSUrSXmfDYvgjLcQ3Kk3B+Wx8J3Gh6jaNtn0+6hYdVkhZcfpVQwyKcGNwfTaf8K+9GhRv4V/IU37PD/wA8k/75FemuKJ9aX4/8A8KXh/D7Nf8AD/gnwb5Un/PJ/wDvk0eW/wDcb/vk195fZYR/yzT/AL5FL9lh/wCea/8AfIp/60P/AJ9fj/wCf+IfL/n/APh/wT4M8p/+eb/98mjyn/uP/wB8195fZYR/yyT8hSi1hP8AyyT8hR/rQ/8An1+P/AD/AIh8v+f/AOH/AAT4M8p/7jf98mjyn/uN/wB8mvvP7LAP+WS/kKT7PD/zyX8h/hR/rRL/AJ9fj/wA/wCIfL/n/wDh/wAE+DfKf/nm/wD3yaPKf+43/fJr7z+yQf8APJP++RR9lh/55J+Qo/1of/Pr8f8AgB/xD5f8/wD8P+CfBnlv/cb/AL5NHlv/AHG/75Nfef2WH/nmv5Cj7LD/AM81/wC+RR/rQ/8An1+P/AD/AIh8v+f/AOH/AAT4L8t/7jf98ml8t/7jf98mvvP7ND/zzX8hSfZYf+eS/kKP9aH/AM+vx/4Af8Q+X/P/APD/AIJ8G+W/9xv++TR5L/3G/wC+TX3n9lh/55r+QpPs0P8AzyX8hR/rQ/8An1+P/AD/AIh8v+f/AOH/AAT4N8qT/nm//fJo8mT/AJ5v/wB8mvvP7LB/zyT/AL5FJ9li/wCeaf8AfIo/1of/AD6/H/gB/wAQ+X/P/wDD/gnwb5Mn/PN/++TR5b/3G/75NfeX2WEf8s0/75FL9lh/55r/AN8ij/Wh/wDPr8f+AH/EPl/z/wDw/wCCfBnlP/zzf/vk0eU/9x/++a+8vssI/wCWSfkKUWsJ/wCWSfkKP9aH/wA+vx/4Af8AEPl/z/8Aw/4J8GeU/wDcb/vk0eU/9xv++TX3n9lgH/LJfyFH2eH/AJ5L+Q/wo/1ol/z6/H/gB/xD5f8AP/8AD/gnwfHazSnCQyOf9lDWhZ+Etc1DH2fR76bPQpbsR+eK+4fssK9I1/IULGB0AH4VMuKKn2aa+80h4f0/t12/kfJei/AjxbrChms47BD/ABXUm39ACf0r0zwv+zTp1n5c2tX0t9ICCYYfkj47HjJ/SvbOPxpMV4+Iz3GYjTm5V5H02B4PyzBtSlHna7/5Gfovh/T9AtVt9PtIbSBf4I0Az9a0OPXvS9KTPtXgSk5O8nc+0p04Uo8tONkuwtJuox70bqk0AClopN1ACjiiik20ALRSdKAKAFIzRSGjdQAtHWikU9qAFPzDB6Vz3i7wHoHjaza21rTYL1COHdRvT3Vuo/CuhpCu6gyqUqdaPJUV0fMvjH9juKQvL4a1do2J/wCPfUeV+gdVyPyNeT+IP2efHXh0sX0hr6Mf8tLFvNB/Dr+lfeWMc0nDdRWTppnyGK4UwGIblBcr8j83b7wjrmmMFu9HvrVvSa2df5is/wCxXO7b9nm3f3fLOf5V+mLQxt1VT9RTPs8Wf9Wv/fIqfZI8SXBML+7W/A/OCx8I65qbBbPR7+6Y9BDbO38hXZaB+zx478QOvl6O1lGf+Wl83lAfUfe/IV93iFF5CgfQU7p04p+zR00eC8NF3q1G/wAD5n8H/sdxx7ZfEurtI/X7Ppxwv4uy5P5CvevCfgPQfBFl9m0bTobJcYZ0Ub292Y8n8a3/ALwo21oopbH1uDyjBYD+BTSffqLxRSdKAKo9kUjNFIaN1AC0CikU9qAFooooAM18w/toRuzeFdqM2PtGSoJ7R19PUySGOXG9VbHTIBqWrqx5WZ4L+0MLLDXtfqfmV5Mn/POT/vg0nkyf885f+/Zr9NPskP8AzyX/AL5FJ9nh/wCeSfkKx9kfA/6kr/n/APgfmb5Mn/POX/v2aTypP+ecn/fBr9NPssP/ADyT/vkUn2eL/nkv/fIo9iu4f6kf9P8A8P8Agn5meVJ/ck/74NL5Mn9yT/viv0y+zxf88l/75FKLaL/nkn/fIo9ig/1I/wCn/wCH/BPzM8mT+5J/3waTyn/uSf8AfBr9NDbxD/lkn/fIo+zRMP8AVJ/3yKPYruH+pH/T/wDD/gn5mrbysQBHIfbYavWfhrV9QYLa6Ve3JJx+6t2b+Qr9I/ssKniJP++RT1jReiKPwFP2K7lR4Jj9qt+H/BPgbQ/gP4519gItAuLVO8l4PJA9/m5r1Twj+xzdyOsniTWVhQf8sdOO5iPdmXj8jX1PtwMUik9Cc1SpxR7WG4Sy+i1Kpeb8zkfA/wAKfDPw/hVdJ02JJ8Ya6kAaVvq3X8sCuv2hegwfWlorVWR9jRo06EVCnGy8goopM5oNhaTdRj3o3UAAFLRSbqAEpR60hNKPSgA3Ug4OaKXdQAlLupO9FAC7qWm040AJn2pKKMUALn2pBRS5oAQmgUUUAL96jpxSUZoAKMUE0o9KADdSUUu6gBKXd7UneigBc+1LTacaAEz7UlFGKAFz7UdeaSlzQAhNAoooAX71HTikozQAUo9aQmlHpQAbqSil3UAJS7qTvRQAu6lptONACZ9qSijFABRRS5oATPtRRRQAvXrR04pKM0AFKPWkJpR6UAG6kHBzRS7qAEpd1J3ooAKdTacaAEz7UlFGKAFz7UlFLmgBM8UUUUAL160dOKSjNABSj1pCaUelABupBwc0Uu6gBKXdSd6KAF3UtNpxoAbRRRigQUUUuaBiUoNJRQAv3qOnFJRmgANKtITSj0oAN1IODmil3UAJS7qTvRQAu6lptONACZ9qSijFABQOaKXd7UAJRRRQAUUUUAFFFFABRRR0oAKM0hYAZJqvc6laWaF57mKJVGSXcDH60yoxlLRIs0Vyt38VvBtgxFx4n0qEr133aDH5mqX/AAu74f8A/Q5aJ/4Hxf8AxVB1LB4l6qnL7mdvRXD/APC8Ph//ANDlon/gfF/8VR/wvD4f/wDQ5aH/AOB8f+NMf1HFf8+pfczuKK4f/heHw/8A+hz0P/wPj/xo/wCF4fD7/oc9D/8AA+P/ABoD6liv+fUvuZ3FFcP/AMLw+H3/AEOeh/8AgfH/AI0n/C8vh9/0Oeh/+B8X/wAVQH1LFf8APqX3M7miuH/4Xh8Pv+hz0T/wOi/+Ko/4Xh8P/wDoc9E/8Dov/iqNA+o4r/n1L7mdxRVDRdd0/wASadFqGl3sGoWMufLuLaQSI+Dg4I46gj8Kv1JyOLi3FrVBRRRQSFLmkooAKKKKACiiigAoo+lJQAtFQzXkFsuZZo4+MncwFc9ffE3wnprFLrxHpkDqcESXSDH607G8KFWp8EW/kdPRXGw/GPwNcPti8W6PI3cLexk/zrd03xVo+sLustTtbpfWKZWH6GkXLC14K8oNfJmrRSK6vyrA+46Ud/ag5dtxaKKKAClzSUUAFFFFABRRRQAUUUUAFFFFABRRRQAUUUUAFFH16fWm+Yi5y2361Lkoq7Y99h1Gao3GuadZnE99bxH/AG5AP61UbxloS8HV7IfWdf8AGuV4zDRdnUX3o0VKo9os2aKxf+E00H/oMWX/AH/X/Gl/4TLQf+gxZ/8Af5f8an69hf8An7H70P2NX+V/cbNFY3/CZaD/ANBiz/7/AC/40f8ACZaD/wBBiy/7/r/jR9ewv/P2P3oPY1P5X9xs0Vj/APCZaD/0F7P/AL/L/jSf8JloP/QYsv8Av+v+NH17C/8AP2P3oPY1P5X9xs0Vjf8ACZaD/wBBiy/7/r/jR/wmWg/9Biy/7/r/AI0fXsL/AM/Y/eg9jU/lf3GzRWN/wmWg/wDQYsv+/wCv+NH/AAmWg/8AQYsv+/6/40fXsL/z9j96D2NT+V/cbNFY3/CZaD/0GLL/AL/r/jR/wmWg/wDQYs/+/wAv+NH17C/8/Y/eg9jU/lf3GzRWN/wmWg/9Biy/7/r/AI0f8JloP/QYs/8Av8v+NH17C/8AP2P3oPY1P5X9xs0uaxf+Ey0H/oMWX/f9f8aP+Ez0H/oMWX/f9f8AGj69hf8An7H70Hsan8r+42aKxf8AhM9C/wCgvZ/9/wBf8aX/AITLQf8AoMWf/f5f8aPr2F/5+x+9B7Gr/K/uNmisb/hMtB/6DFn/AN/l/wAaP+Ey0H/oMWX/AH/X/Gj69hf+fsfvQexqfyv7jZorH/4TLQf+gvZ/9/l/xpP+Ez0H/oMWX/f9f8aPr2F/5+x+9B7Gp/K/uNmisdfGGhvwurWbfSZf8auW+sWF5/qbyCU/7Lg1ccZh5O0ai+8TpVFvFlyimq4bGCD9Dmnc/hXSpKWzM9tAoooqhBRRRQAUuaSigAooooAKKKKACiiigAopOM4zXkvxz/aO8OfBXS3WeVdQ16VGNtpcbYZzg4LkA7FyOpH4Gg7MJg6+OrRoYaDlJ9Eeoalqlno9jLd31zFaW0Qy8szhVUepJr5s+J37dnhTwpLLZeGraTxJeKCBNGyrbA/7+cnt0GPevj74r/Hfxb8YL55davmi08NmHTLdsQRjtkDG4+5rzv8AlUOfY/eMl8OaUUquaS5n/Ktl6vqe2+NP2w/iV4waVE1SLRbVuBDp0ZjIGf75JbP0IryTVfEusa7J5mpatfX8nUvcXDOT+ZrNoqOZn6zg8nwGBio4ejGPyDr15+ppNq5ziloqT1lCK0SE2j0pNi/3R+VOooDlj2E2ijaPQflS0UByrsJtHoPyo2+w/KlooHyrsJtHpRtH+RS0Uxcq7H6a/sZqB+zz4a473H/o569urxL9jP8A5N58NfWf/wBHPXttb9D+Jc6/5GWI/wAcvzCiiig8YKKKKACiikPfFAC1FcXUVnC00sixRICzO5wAB3ya4n4rfGbw18H9FN9rl4FlcEQWkY3SzN6Bf69K/Pb4yftPeLfjBJJBLM2kaE3C6ZayZDD/AG3wC3Xp09qTaW59rkHCmOz6XNBctPrJ7fLufYHxR/bS8FeAWks9MkfxNqSkgpp7KYkPo0hOB+GTXy944/bX+IviySVLC5t/D1m2QI7OPMu08cuxPP0ArwE/N/Og81HMfv2V8D5Tl0U5w9pLvL/LY2tb8aa/4mkZ9W1vUNSZjk/aLp3/ACBPH4Vitlu5P+8c0UVB91Tw1CilGnBL0QiqFzgAfhU9veXFq4eG4licHIaNypqGigt0qclaUUeh+E/2gviH4LYf2b4pvjGOBFdObhAPQB84/CvoP4d/8FBLqExW/jLQ1nBYK15pQxtGepR2/PB/CvjmgY9KrmZ8xmHC2U5kn7Wik+60f4H66+Afit4W+Jmnrd+HtXt79cAvErASR+zJ1H411wwVBHQ1+N3h3xFqnhTVodS0e/n06+iOUmgfafx9R7GvtX4Afts2+vT22g+PDHYXzlUh1UcRTMTgBwBhD056delWpI/DeIOAcVlsXiME/aU10+0v8z68oqO3mjuollicSRsNyspyCKkqj8paadmFFFFAgooooAKKKKACiiigAoorO1zX7Hw9YvdX0yxRKD16sfQDuayq1YUYOdR2S7lRjKcuWKuzQ3ALknAxnmuR8T/FDRPDW+Npvtl0vHkW+GI+p6CvKvGnxa1LxE0tvZlrCwbgKrfPIOxJxxn0FcG3zdeTz+tfkmccdKnJ0sAr/wB5/oj7DBZDzJTxLt5HouvfGzWdQZ1sY4rCA9CV3SfmeP0ri9R8SapqrMbrULmYN1VpDt/LpWd6UV+XYvOcfjZN1qrfz0+4+qo4HD0NIRSF3sepJ+tIeaKK8lzk3ds7VGK6CbRRtHpS0VPM+47LsJRgelLRRzPuFl2Dj0pNo9KWijmfcLLsJtHpRtHpS0Ucz7hZdhNo9KNo9KWijmfcLLsJgelLx6UUUcz7hZdhMD0pePSiijmfcLLsJtHpRtHpS0Ucz7hZdhMD0opaKOZ9wshKMD0paKOZ9wsuwcelJtHpS0Ucz7hZdhOlKrFTlSQfrRRVKco7MXKuxrab4u1rR3DWup3EYAxt3kr+R4rt9B+Oep2e2PU4I72L/npGNr/4fyrzKkPINezg88zDAtOjVdu26OCtl+GxGk4I+nPDXxB0bxQii1uVjuD1t5jtf/6/4V0tfICsY2DKSjjoykgivSvBPxivNMkjtdZJubXgeefvxjPU4HIr9VybjanXao45cr79PmfJ47IZU/eoO67HutFVtP1K21azjurSZZ4JBlWU1Zr9WhONSKnB3TPkpJxdmFFFFWIKKKKACiiigApPpyKWvLf2hPjVZfBbwNPqLlJtVuVaHT7Unl5tpwTx90dSf8aDrwuFq42vDD0VeUnZHI/tPftM2vwd0z+ydIMV54puk/dxt8yWy5A3OAc9M4HqK/OvXNcvvEmrXGp6pdSX19cNulnmbczH/D27UviDxBf+KtZvNX1W5e71G8kMssshySSc/gPYcCs+sZSuf1twzw3QyHDpJXqv4pfovIKKKKk+1CiiigQUUUUAFFFFABRRRQAUUUUAFKOopKB1FAH6bfsZ/wDJvPhr6z/+jnr22vEf2M/+Te/DX1uP/Rz17dXR0P4kzr/kZYj/ABy/MKKKKDxQooooAK8p+P3x40v4JeFWuJCtzrVyrJZWQYZd8HDNzkIDjJ966z4nfETS/hb4Pvtf1aTbb26/Kg+9I54VAPUkivyt+I3xC1b4oeLLzX9ZmL3Fwf3cKtlIUHRF46D9Tmpk+U/R+D+F5Z5X9tXX7mG/m+3+ZD488e618SfEdzrevXbXV5M3C5ISJc8IgzwBXPetFFZXuf1PQoUsNTjSpRtFbJBRRRSNwooooAKKKKACiiigYUfrRRQKye59QfsuftXXPga7tPC3iq6M3h1yI7a+mb5rPg4DEn7nQf7OfSvv63uI7qFJYnWSNxuVlOQQe9fjCSceoHavs79iv9ohxJF4B8Q3Rk4xpd1M30/ck49+Mnpx6VtF33PwfjjhGPJLM8DHb4kvzX6n2rRR6UVR+BBRRRQAUUUUAFFFVdU1CDSLCe7unCQwoXYn0FROcacXOTskNJyaSKHirxRZ+E9KkvLtunCRqfmduwFfOXijxZf+LdQa6u5MKOI4V+5GPb396l8aeLLjxdrEt1IdtupKwR54Vc9fqawDziv524m4kqZnWdCi7Ul+PmfpGV5ZHCxVSes3+AUUUV8Dc+iCiiikAUUUUAFFFFABRRRQAUUUUAFFFFABRRRQAUUUUAFFFFABRRRQAUUUUAFFFFABRRRQAUUUUAFFFFABSdvWlooA6bwR46vPBt6DGTNYyMPNtmPB9x6H/CvovRtYtdd0+G8s5FlhkGQV7e1fJvWuy+G3jl/CeqrHMxfTrhgJUJ+5yMPX6TwtxNPAVFhcS703+B8vm2VxxEXWpK0l+J9H0UyGZLiFJY3DRuoZWHcHpT6/oFNSSktj89em4UUUUxBRRRQBFc3CWsDzSkJGilmZjgACvy0/aN+ME/xh+I13fxSN/Y9rm30+PnHlg8v1xljk/TFfaP7aHxKk8B/Ceaysp/J1PWHFpGVOGEeQZCP+A8f8CFfm30wBwPSok9LI/ffDfJY8s80qrXaP6sKKKKyP3gKKKKACiiigAooooAKKKKACiiigAooooAKUdRSUo6igD9NP2M/+Te/DX1uP/Rz17dXiP7Gf/Jvfhr63H/o569uro6H8S51/yMsR/jl+YUUUUHiBSN8uScADrzS15v8AtB/EI/DP4T69rEbql79naG03f89nBVD74JBx7UHThcPPF14UKau5NL7z4x/bO+Mz+PPHj+G7CXOi6G7RtsPyyXGcOTg87eg98185fU5qS5uHuriSeZjJNM5kd2PJYkkn8yajrGTuf2nlGWUspwVPCUlblWvm+rCiiipPZCiiigAooooAKKKKACiiigAooooAKn0++n0u/tb21kMN1aypNDIvBR1YMrD3BAqCimiZwVSLjLVM/VT9nj4sRfF74a6dqzMq6jGv2e9jX+GZQNxHPQ8EfWvT6/Or9iD4lP4R+KB0CeTGna4vlgE8LMisyn8QCPxFfopnnFbLVXP484qyj+xs0nRgvceq9H/kLRRRTPjwooooAQnFeK/Gzxcbi6TQ7dv3cWJJyvdscD6cj869b17VE0TRru+lxshQtgnGfQV8rX19NqV3PdTvvmmcu7eua/MOOM1lhcNHCU3rPf0PqciwirVXWmtI/mQetFFFfgZ+ghRRRQMKKKKACiiigAooooAKKKKACiiigAooooAKKKKACiiigAooooAKKKKACiiigAooooAKKKKACiiigAooooAKKKKACj070UU/PqK1z2/4K+Lzf2MmjXL5mtgDCSeWT0z7fyr1Hjsc18peGtbk8O67aahGW/cvllzjKkYI/Imvqi3mS6hSaM7kdQysOhr+h+DM1eOwXsKj96np8j83zvCLD1+eO0tSWiiiv0M+dCm80v40jsEUsegGaBrc/PD9u3xg3iD4twaRHNuttItArJnpK53MfyCflXzbXa/GzW38RfFzxdeyNv3anPGjZzlEcqv6KK4qsJbn9pcPYRYHK8PRX8q+9hRRRSPogooooAKKKKACiiigAooooAKKKKACiiigApR1FJSr1FAH6afsZ/8AJvfhr63H/o569urxD9jP/k3vw19bj/0c9e3LXR0P4lzr/kZYj/HL8xaTn1ozRmg8QN1fFH/BQrxgzXHhvwvFKNo3ahNGPbKIf1evtb8M1+ZX7Y2vNrnx61xC2+OxSG2j57BAx/VjSloj9I4BwaxWcxlLaCb+Z4mOnPNFFFYH9WhRRRQAUUUUAFFFFABRRRQAUUUUAFFFFABRRRQMu6LrVz4c1iz1WyfyruzlWeJsdGU5FfsH4a1mHXvD+n6lbkPDdwLMjDuGGa/G+v09/ZD8QP4g+A/huSRy8kKSW5z22OygfkBWsex+HeJ2DUsPQxa3Ta+TPZd1LSUnJqz+eg3UvuTxSbaX2zQB5n8dNYNr4ft7BGw11Lllz1Ref5kV4YfvZr0j46Xgm8TWtuDkQ24PXuSc/wAq83r+Z+LcU8RmtS+0dEfp2T0lTwsX31CiiivjD3QooooAKKKKACiiigAooooAKKKKACiiigAooooAKKKKACiiigAooooAKKKKACiiigAooooAKKKKACiiigAooooAKKKKACiiigA4HJ6d6+i/hHrB1bwbahn3SW5MDZ68dP0xXzp9elewfAG8Zo9Us26ArKv45z/IV+gcE4l0M0UOk1Y+cz2iqmFc+qZ7BRSc+tHPrX9Fn5uJuqvqLFdPuWz0jY/pU9V9QG7T7kesbD9KDSn8cfU/HbXrj7Vr2pznnzLuV8/Vyf61Qq9r0H2XXdTh6eXdzJj6ORVGsOp/c2Dt9Wp27L8gooopHWFFFFABRRRQAUUUUAFFFFABRRRQAUUUUAFKOopKKAP00/Yzx/wz14a/7eP/AEc9e2V49+yPafY/gF4WXGA0Uj/99Ox/rXsNdB/EedNPMsR/jl+YUUUUHjC5r8m/j1dfbPjN4xkznGoypn/dOP6V+sdfkh8Zf+SueM/+wvc/+jDUy2P2bwxS+v13/d/U46iiisT+jwooooAKKKKACiiigAooooAKKKKACiiigAooooAP0r9Df2Cbs3PwZuYyxJh1KVcZ6cK3/s1fnlX6Af8ABPr5vhLrJ/6jMn/oqOtKe5+W+Iq/4Rr/AN5H1Dk0L3pKWtD+XA3UlFAoA+dfi9KJPHN2vdFQf+O5/rXGV2fxch2eOLxiMblQ/wDjoFcZX8pZ5f8AtKvf+Zn61l/+607dgooorwT0QooooAKKKKACiiigAooooAKKKKACiiigAooooAKKKKACiiigAooooAKKKKACiiigAooooAKKKKACiiigAooooAKKKKACiiimAV6X8CZSvie9jz961Jx9GX/GvNK9L+BEO7xNeyYzi2I/Nl/wr6jhe/8Aa1FrueRm3+51D3PdRuo/ClHPav6iPysbSSIJI2U9CMGloz1oGtHc/JT42aK/h/4ueL7Jl27dTnkRemEdyy/owriq+kv27vB/9g/Fq31lIyLfV7QMXHQyxna3/jpSvm2snuf2lw7i1jcqoVov7K+9bhRRRUH0QUUUUAFFFFABRRRQAUUUUAFFFFABRRRQAUKpkIUdW4FFdZ8J/CkvjX4leGtGjj80XGoQecn/AExVw0h/BQaa3OXF144bD1K0nZRTZ+n/AMFdFPhz4S+EtPZNksOmW6yL0w3lru/Wu1pltClrbxwpwqIF/IU+tz+HMRVdetOq/tNv7wooooOcUtweK/I/4zD/AIu54z99Xuf/AEYa/W49DX5JfGb/AJK34y/7C1z/AOjDUy2P2jww/wB9r/4V+ZxtFFFYn9GhRRRQAUUUUAFFFFABRRRQAUUUUAFFFFABRRRQAV+gH/BPn/kkms/9hmT/ANFRV+f9foB/wT5/5JJrX/YZk/8ARUVXTPy/xE/5Ev8A28j6hbrSUUVqfy0FAoo+tAHhXx0szF4ltLjGFmg4+oJz/MV5vXuXxz0k3Xh+1vkTc9rLg+yNx/PFeGjnpX8z8XYV4fNqj6S1P0/JqvtMJHutAooor4w9wKKKKACiiigAooooAKKKKACiiigAooooAKKKKACiiigAooooAKKKKACiiigAooooAKKKKACiiigAooooAKKKKACiiigAooooASvYfgHZkR6pdnkZWMfhnP8ASvH6+ivhLo/9k+DbbcmyW5Jnb8en6AV+gcFYV18zVS2kFc+cz2tyYXl7nZ0oOKSiv6LPzcKKKKAPAv2zPhnL47+E013ZQ+bqOjuLuJV+8Y8gSD/vnnHqor83FIYZr9nLiBLqCSKVQ0bgqwx1B7V+W37Rnwfn+DvxEu7COIjRrsmawkxgbCeU+qnj8j3qZLqfvvhvnSSnllV67x/VHllFFFYn7yFFFFAgooooAKKKKACiiigAooooGFFFFAgr67/YD+Gr3uuar40uoiILZGsrXdyDISpdhx2GBn3NfLHhnw1f+MvEOn6HpUX2jUL6Tyoo/fnk+wAJPsK/V74V/D+z+F/gPSfDln8y2sQDyYwXkJyzd+pJNaRR+S+IWdLBYH6jTfv1Pwj1+86485P40UUVofzIFFFFABX5IfGY/wDF3PGX/YWuf/Rhr9b6/JD4zD/i7njL/sLXP/ow1E9j9o8MP99r/wCFfmcdRRRWR/RoUUUUAFFFFABRRRQAUUUUAFFFFABRRRQAUUUUAFff/wDwT5/5JHrX/YZk/wDRUVfAFff/APwT5/5JHrX/AGGZP/RUVXTPy/xE/wCRL/28j6hooorU/loKKKKAKGuaVHrWj3VjKMpMhX6Hsfzr5Xv7KXTbyS1nXZPCxRwR3FfW9eL/ABr8Itb3S65AuYpcJOFHRh0b8uPyr8w43yqWKw0cXTXvQ39D6nIsZ7Go6MnpL8zyqigc5INFfgh+ghRRRSGFFFFABRRRQAUUUUAFFFFABRRRQAUUUUAFFFFABRRRQAUUUUAFFFFABRRRQAUUUUAFFFFABRRRQAUUUUAFFFFABRSUvI60wNPw1ocniPXLTT4snznwxH8KgZJ/IV9TW8KW8KQIAqRgKoA6YFeZ/BfwgdPs31m5XE1yoWEEchPX8ePyr1D8K/ofgzKngcH7eorSqfkfm2dYtYivyRekQooor9DPnQooooAK8v8A2hfgvZ/GbwPcaeVRNXt1aawuScbJQpAUnBO08A+3uBXqFG0dMUHXhcVVwVeOIoO0ou6Pxv8AEGgX/hXWrzSdUt3tb+0laKWJ1IIIPUex6g9xWfX6RftOfsz23xg03+1tI8uz8UWq4SRh8twnBMbc9fQ9q/OrWtE1Dw3qdzpuqWkljqFs2ya3mGGQ/wBfqKykrH9bcNcSYfPsOmnaqvij+q8ilRRzjNFQfaBRRRQAUUUUAFFFFABRRRQMKVVLsoAJ3HAwOp9KQAnjBz2AGc19kfsp/smTPdWnjLxna+VHGRLY6XKvzbwQVlfntjhSPeqUWz53O88w2R4V168tei6tnYfsZ/s9nwbpKeMtftiuuXsf+iQyjm2hI6kY4ds8+gAHrX1Rn0pERY0VVXaqjAApa1P5DzXM6+bYueLrvWX4LsFFFFM8cKKKKACvyR+M3/JW/GX/AGFrn/0Ya/W6vyR+M3/JW/GX/YWuf/RhqJ7H7R4Yf77X/wAK/M42iiisj+jQooooAKKKKACiiigAooooAKKKKACiiigAooooAK+//wDgnz/ySPWv+wzJ/wCioq+AK+//APgnz/ySPWv+wzJ/6Kiq6Z+X+In/ACJf+3kfUNFFFan8tBRRRQAVW1PToNW0+e0uIxJFMhRh7EVZorOpTjUi4zV0xxbi1JbnzD418J3HhHWpLWQM9uxLQSYzuX6+orA7V9SeKfC9p4r0qSzu0zxlJAPmRvUV86eKPCd74T1Bra8QkHmOZR8sg9fr7V/O/E3DlTK6zr0Vek/w8j9IyvM44uCp1Pj/ADMaij15or4E+hCiiigYUUUUgCiiigAooooAKKKKACiiigAooooAKKKKACiiigAooooAKKKKACiiigAooooAKKKKACiiigAoooHTNMA/Wuw+HHgeTxZqySyqyadAwaV/72CMIPr3qr4J8C3njK92x7oLJD+8uSOnsBnk19FaPo9roWnxWdnGIoYxgAd/ev0jhXhqeOqLFYhWprbz/wCAfL5tmiw8XRpP3n+Bat4UtoUijQKiLtVQOAB0p9FFf0DGKiklsfnmr1YUUUUwCiiigAooooAXJ/GvJfjh+zn4d+NWmsbmP7Brcan7PqUCjeDg4Vv7y57fkRXrNFB2YXGV8DWVfDycZLqj8ovix8CfFvwg1DZrVi0liWIi1G2BeBx2y2BtPsa87BzX7LalpdnrFnJa31tFd20nDRTIGUj0wa+bvid+wr4W8WNNd+GrxvC962WMaxma3Y/7hYbfwOPaocex+8ZJ4jUZpUs0jyv+ZbfNH590V7b42/Y9+JXg+STydKXXrNBn7Tp8i8j/AHGO7P0BryXVvDOr6DN5Wp6XeafJ023EDIf1FRys/WcJnGAx0VLD1oy+ZmUUH5evH1oBB71J6vtIb3CirNnpt3qEwitrWa4kbosUZYn8q9G8I/s0/Enxg8Zs/C91bQMwHn3xWBQPXDEMR9AadmcGIzLB4SPNXqxivNo8w74xzW54N8D658QtYi0zQNOn1K5kx/qkJVATjLN0Ue5r68+G/wDwT9treSK68a639tXGTp1jGY1z6GTdkj6AV9UeD/AWgeA9MSw0HS7fTbZRjbCmCfcnqT7mr5T8wznxFweGTp5cvaS77RX6s8E/Z9/Y30zwA1vrnizydX19fnSAHfb25xwRlRub3PHoO9fTSqFAA4UdAKXmirPwDMc0xea13iMVPmf5egUUUUzygooooAKKKKACvyR+M3/JW/GX/YWuf/Rhr9bq/JH4zf8AJW/GX/YWuf8A0Yaiex+0eGH++1/8K/M42iiisj+jQooooAKKKKACiiigAooooAKKKKACiiigAooooAK+/wD/AIJ8/wDJI9a/7DMn/oqKvgCvv/8A4J8/8kj1r/sMyf8AoqKrpn5f4if8iX/t5H1DRRRWp/LQUUUUAFFFFABWfrmg2XiKxe1voFmjYHBPVT6g+taFFZVqUK8HTqK6ZUZShJSi7M+fvGfwn1Hw60txYg39h1yOZE9iAOnuK4PHXPH1r682gqQRnjFcn4n+GOi+Ji0hg+yXZ6TQ8HPuOhr8lzjgZVG6uXyt/df6H1+Cz5wXJiFfzPm/tkUV6HrfwS1nT2ZrB49RTsF/dvj6E4/WuN1Dw3qulOy3Wnzw7erFDj8+lfluLybHYJ8tek1520PrKONw+I1hNGdRRtYZyNv1pK8hwkt0dnMnsxaKT8RR+Ipcsuwcy7i0Un4ij8RRyy7BzLuLRSfiKPxFHLLsHMu4tFJ+Io/EUcsuwcy7i0Un4ij8RRyy7BzLuLRSfiKPxFHLLsHMu4tFJ+Io/EUcsuwcy7i0Un4ij8RRyy7BzLuLRSfiKPxFHLLsHMu4tFJ+Io/EUcsuwcy7i0Un4ij8RRyy7BzIWijr3o2lmwATVKEnsg5kt2FFa+m+EtY1dgLTTriUH+LZhfzOBXaaH8DdTvAr6jcx2CZ5RB5jY/A4Fezg8kzDHNKjSbXfZHDWx2Hw69+aPNUUySBEUuxOAF5J/KvSvBXwdu9Skiu9X3WloMEQg4kf2PHA/WvT/DfgHRvC6A21sHnxgzy/Mx+men4V0f4D8q/VMm4HhQaq498zXRbfM+SxueyqJww6su5W07TbbSbSO2tYUhhjGFVRgVZoor9XpwjTioQVkj5OUnJ8z1YUUUVZIUUUUAFFFFABRRRQAUUUUAFH1oooABgcY4qtc6baXkZSa2ilVuGDoCDVmiguMpRd4s5O8+EvgrUGY3PhbSZy3UyWcbZ/Nahg+DPgS1bMPhDRYj6pYxA/+g12VFO50/XMTt7R/ezP0/w9pmlxiOz0+2tox/DFEFH6Cr6qFxhVA9AKWilc5pVJ1H7zuH+etFFFBAUUUUAFFFFABRRRQAUUUUAFfkj8Zv8AkrfjL/sLXP8A6MNfrdX5I/Gb/krfjL/sLXP/AKMNRPY/aPDD/fa/+FfmcbRRRWR/RoUUUUAFFFFABRRRQAUUUUAFFFFABRRRQAUUUUAFff8A/wAE+f8Akketf9hmT/0VFXwBX3//AME+f+SR61/2GZP/AEVFV0z8v8RP+RL/ANvI+oaKKK1P5aCiiigAooooAKKKKACiiigA9PakKK33lDH3FLRUyipaMNd0yhc6Dp142Z7C2mP+3ED/ADqq3g3Qm+9o9iT/ANe6/wCFbNFcssHh5P3qafyRqqtRbSZjf8IZoP8A0B7L/vwv+FH/AAhmg/8AQHsv+/C/4Vs0UvqOF/59L7kV7er/ADP7zG/4QzQf+gPZf9+F/wAKP+EM0H/oD2X/AH4X/Ctmij6jhf8An0vuQe3q/wAz+8xv+EM0H/oD2X/fhf8ACj/hDNB/6A9l/wB+F/wrZoo+o4X/AJ9L7kHt6v8AM/vMb/hDNB/6A9l/34X/AAo/4QzQf+gPZf8Afhf8K2aKPqOF/wCfS+5B7er/ADP7zG/4QzQf+gPZf9+F/wAKP+EM0H/oD2X/AH4X/Ctmij6jhf8An0vuQe3q/wAz+8xv+EM0H/oD2X/fhf8ACj/hDNB/6A9l/wB+F/wrZoo+o4X/AJ9L7kHt6v8AM/vMb/hDNB/6A9l/34X/AAo/4QzQf+gPZf8Afhf8K2aKPqOF/wCfS+5B7er/ADP7zG/4QzQf+gPZf9+F/wAKP+EM0H/oD2X/AH4X/Ctmij6jhf8An0vuQe3q/wAz+8xv+EM0H/oD2X/fhf8ACj/hDNB/6A9l/wB+F/wrZoo+o4X/AJ9L7kHt6v8AM/vMb/hDNB/6A9l/34X/AAo/4QzQf+gPZf8Afhf8K2aKPqOF/wCfS+5B7er/ADP7zG/4QzQf+gPZf9+F/wAKP+EL0D/oD2X/AH4X/Ctmij6jhf8An0vuQe3q/wAz+8x18H6Ev3dHsR/2wX/Crlro9hZf8e9lbw/9c4wKuUU44PDR+Gml8kT7Wb3kxNoX7owPSloorrSS2Rnu9QooopiCiiigAooooAKKKKACiiigAooooAKKKKACiiigAooooAKKKKACiiigAooooAKKKKACiiigAooooAKKKKACvyR+M3/JW/GX/YWuf/Rhr9bq/JH4zf8AJW/GX/YWuf8A0Yaiex+0eGH++1/8K/M42iiisj+jQooooAKKKKACiiigAooooAKKKKACiiigAooooAK+/wD/AIJ8/wDJI9a/7DMn/oqKvgCvv/8A4J8/8kj1r/sMyf8AoqKrpn5f4if8iX/t5H1DRRRWp/LQUUUUAFFFFABRRRQAUUUUAFFFFABRRRQAUUUUAFFFFABRRRQAUUUUAFFFFABRRRQAUUUUAFFFFABRRRQAUUUUAFFFFABRRRQAUUUUAFFFFABRRRQAUUUUAFFFFABRRRQAUUUUAFFFFABRRRQAUUUUAFFFFABRRRQAUUUUAFFFFABRRRQAUUUUAFFFFABX5I/Gb/krfjL/ALC1z/6MNfrdX5I/Gb/krfjL/sLXP/ow1E9j9o8MP99r/wCFfmcbRRRWR/RoUUUUAFFFFABRRRQAUUUUAFFFFABRRRQAUUUUAFff/wDwT5/5JHrX/YZk/wDRUVfAFff/APwT5/5JHrX/AGGZP/RUVXTPy/xE/wCRL/28j6hooorU/loKDxzRRQA1pEViCwBHXJpvnx/31/MV86fFZmHjzUsMQPkxz/sCuS8x/wC+35mvyfG8dfVcTOh7G/K7b/8AAPraGQ+2pRqc++ux9c+dH/fX8xR50f8AfX8xXyN5j/32/M0eY/8Afb8zXF/xEL/px+P/AADf/Vx/8/PwPrnzo/76/mKPOj/vr+Yr5G8x/wC+35mjzH/vt+Zo/wCIhf8ATj8f+AP/AFcf/Pz8D6586P8Avr+Yo86P++v5ivkbzH/vt+Zo8x/77fmaP+Ihf9OPx/4Av9XH/wA/PwPrnzo/76/mKBNGf+Wi/wDfQr5G8x/77fmaetxJH92Rx/wI0f8AEQ/+nH4/8AP9XH/z8/A+uN6noyn8aX618o2viDUrL/j31C6h/wB2U4rodL+LHiTTWAN6LqMf8s7hAf1HNelh+P8ACTdq1Nx/E5qnD1aK9ySZ9G0V5VoHx0tLjCaraG0bp5sTF1/LGR+tej6VrVjrVsLiyuY7iI90PI+o7V9xgc5wOYxvh6ib7bM8HEYOvhnarEvUUc5xg0V7ZxBRRRQAUUUUAFFFFABRRRQAUUUUAFFFFABRRRQAUUUUAFFFFABRRRQAUUUUAFFFFABRRRQAUUUUAFFFFABRRRQAUUUUAFFFFABRRRQAUUUUAFFFFABRRRQAUUUUAFFFFABRRRQAUUUUAFfkj8Zv+St+Mv8AsLXP/ow1+t1fkj8Zv+St+Mv+wtc/+jDUT2P2jww/32v/AIV+ZxtFFFZH9GhRRRQAUUUUAFFFFABRRRQAUUUUAFFFFABRRRQAV9//APBPn/kketf9hmT/ANFRV8AV9/8A/BPn/kketf8AYZk/9FRVdM/L/ET/AJEv/byPqGiiitT+WgooooA+b/iv/wAj5qX/AAD/ANAFclXW/Ff/AJHzUv8AgH/oArkq/k3Of+RjX/xM/W8B/u1P0CiiivGPQCiiigAooooAKKKKACiiigA4znHNW9L1e90a6S4srl7eVTnKHAP1HcVUorWnUnRmp03ZoicIzXLJaHt3gb4xQ6o0dlrIW1uW+VbgDEbHHfJ4NenKyuu5TkdiK+Q69H+HHxQl0OaPTtTdprFiAkzNkw5P05FfsHDvGLco4TMH6S/zPi8yyVRTq4f7j3aimxSJNGskbB42GVZehFOr9lUlJXR8XtowooopgFFFFABRRRQAUUUUAFFFFABRRRQAUUUUAFFFFABRRRQAUUUUAFFFFABRRRQAUUUUAFFFFABRRRQAUUUUAFFFFABRRRQAUUUUAFFFFABRRRQAUUUUAFFFFABRRRQAUUUUAFfkj8Zv+St+Mv8AsLXP/ow1+t1fkj8Zv+St+Mv+wtc/+jDUT2P2jww/32v/AIV+ZxtFFFZH9GhRRRQAUUUUAFFFFABRRRQAUUUUAFFFFABRRRQAV9//APBPn/kketf9hmT/ANFRV8AV9/8A/BPn/kketf8AYZk/9FRVdM/L/ET/AJEv/byPqGiiitT+WgooooA+b/iv/wAj5qX/AAD/ANAFclXW/Ff/AJHzUv8AgH/oArkq/k3Of+RjX/xM/W8B/u1P0CiiivGPQCiiigAooooAKKKKACiiigAooooAKTotLRRtsB6r8IfiC1rMmiajLmGT/j2kY/dOPuknt6V7RXyErFWVgcFTkEda+kPhr4t/4SrQVZ2/0u3/AHcy55yOh/EV+5cF55KvH+z8Q7tfC/LsfBZ5l/spfWKez3Otooor9ZPkQooooAKKKKACiiigAooooAKKKKACiiigAooooAKKKKACiiigAooooAKKKKACiiigAooooAKKKKACiiigAooooAKKKKACiiigAooooAKKKKACiiigAooooAKKKKACiiigAr8kfjN/yVvxl/2Frn/0Ya/W09DX5JfGb/krfjL/ALC1z/6MNRLY/aPDD/fa/wDhX5nG0UUVkf0aFFFFABRRRQAUUUUAFFFFABRRRQAUUUUAFFFFABX3/wD8E+f+SR61/wBhmT/0VFXwBX3/AP8ABPn/AJJHrX/YZk/9FRVdM/L/ABE/5Ev/AG8j6hooorU/loKKKKAPm/4r/wDI+al/wD/0AVyVdd8V/wDkfNS/7Z/+gCuRr+Tc5/5GNf8AxM/XMB/utP0CiiivGO8KKKKACiiigAooooAKKKKACiiigAooooAK7D4W+I38P+KreN2/0a7It3HoSRtJ/H+ZrjqfHI0ciup2spBXHY5r0MvxUsFioYiO6ZzYmjGvSlTl1Prvg9DRWT4U1Ya14b0686tJCu//AHsYb9a1q/rShVjWpRqx2aufkM4OEnB9AooorczCiiigAooooAKKKKACiiigAooooAKKKKACiiigAooooAKKKKACiiigAooooAKKKKACiiigAooooAKKKKACiiigAooooAKKKKACiiigAooooAKKKKACiiigAooooARvumvyS+M3/JXPGQ/6i1z/AOjDX63deK/JD4y4b4ueMz/1Frn/ANGGplsftHhjpja/+FfmcdRRRWJ/RoUUUUAFFFFABRRRQAUUUUAFFFFABRRRQAUUUUAFff8A/wAE+f8Akketf9hmT/0VFXwBX3//AME+v+SR6z6/2zJ/6KjrSmfl/iJ/yJW/7yPqGiiitD+WgooooA+cPix/yPupf9s//QBXI11vxY/5H7U/qn/oArkq/k7OV/wo1/8AEz9cwP8AutP0QUUUV4p3hRRRQAUUUUAFFFFABRRRQAUUUUAFFFFABR1oo57daYHvfwR1Brnwg0LHcYJ2UD0B5/qa9CryX4BTf6Jq0XUK0bfmCP6V61X9RcM1XWyqjJ9rH5RmkFDF1IruFFFFfUHlhRRRQAUUUUAFFFFABRRRQAUUUUAFFFFABRRRQAUUUUAFFFFABRRRQAUUUUAFFFFABRRRQAUUUUAFFFFABRRRQAUUUUAFFFFABRRRQAUUUUAFFFFABRRRQAUUUUAH61+TPx1tvsvxj8Yx4x/xM5n/ADbP9a/WbpX5g/tdaK2j/HzxGdu2O6MVwnGM5jUE/mDUy2P1/wAM6yhmdSD+1H8meO0UUVif0sFFFFABRRRQAUUUUAFFFFABRRRQAUUUUAFFFFABX6E/sC23k/By9kx/rdUlb8lQf0r89unP86/TP9jfRX0X4B6B5ibJbky3DcYzukbB/LFaQ3PybxIrKnlMaf8ANJfge20UUVofzGFFFBzjjrQB85/FyMp46vv9oIf/AB0D+lcdXonxxtPs/iuCYD5Zrcc+4JH+Fed1/K3EFN0czrxfc/WctkpYWm/IKKKK+dPSCiiigAooooAKKKKACiiigAooooAKKKKACiij8cUwPYPgDGVi1h+xaMf+hf4167Xm3wJszF4ZupyOZpz+QA/+vXpNf0/wtTdPKKKfY/Ks1lzYyowooor6s8kKKKKACiiigAooooAKKKKACiiigAooooAKKKKACiiigAooooAKKKKACiiigAooooAKKKKACiiigAooooAKKKKACiiigAooooAKKKKACiiigAooooAKKKKACiiigAr4c/4KEeETb674c8SxRnZcRNYzPjgMpLoPqQW/KvuOvJf2ovh23xG+Dut2kEPnahZxtfWaKMs0sakhR7sMr/wKjpY+q4XzBZZm1Gu9r2fo9D8uaKVlKMyMMOpwy9wfSkrnP7Ki1JXQUUUUDCiiigAooooAKKKKACiiigAooooAKKKKBk1lYz6peQWdrGZrm4cRRRryWY8AV+wHgvw/D4V8JaTpEC4israOBf8AgIxX54/safDl/HHxes9RlTdp+hj7VNkZBcqwjX65+b/gNfpR9OK2itD+cPErMo1sZTwUH8Cu/VhRRRVH4wFFFFAHl3x30nzNIsdQVdxt5DGx9mwP5j9a8T9cdq+p/FOip4g0G8sWxmSP5c9Aw5B/MCvlueCS1nkhlXy5UYhkPUYr8A46wMsPjViVtNfifoWQV/aUHRe8RlFFFfmZ9SFFFFABRRRQAUUUUAFFFFABRRRQAUUUUAFHp3ore8D6BJ4i8TWFqEzF5iyy+nlggn8+n4114XDzxVeFCKu5NIxq1Y0oSm+h778P9J/sfwjpkDJtcxCRgeu5uT/OuipEURqFHQDApa/rXC0FhqEKK2ikj8fqzdSpKb6hRRRXWZBRRRQAUUUUAFFFFABRRRQAUUUUAFFFFABRRRQAUUUUAFFFFABRRRQAUUUUAFFFFABRRRQAUUUUAFFFFABRRRQAUUUUAFFFFABRRRQAUUUUAFFFFABRRRQAUUUUAFNkjEylSMqRjbinUUDTd7n5nftZ/B+X4Y/Ei4u4Iduiaw73Vu4HCSE5eP2wTwPQj0rxD6c1+sPxs+E9h8Y/At3od4fJuOJbW625MMqnKntwehHcGvyz8UeGNS8F69e6Lq9u1tqNo5SWNv0I9QRWUlrc/qjgjiKObYNYas/3tPR+a6MyqKKKg/TAooooAKKKKACiiigAooooAKKKKBhT44XmmSGNWeWRgiKoySx4AxTBnqfXtX1P+xj+z63i3WIfG2uW3/EnsJQ1hFIv+vnVgRJ1+6pHpyfpzUVc8HOs2o5LhJ4qs9tl3fRH0r+yv8I/+FU/DO1ju4lj1nUcXV5xypKjCevyjA+ua9kpNvYcUtbH8aY7GVcfiZ4mq7yk7hRRRQcQUUUUAFeE/Gbwm2l6x/asC4tbs4k44VwP69fzr3as3xFoVv4k0m4sLkZjlUjdjlT2I9xXzWf5THNsFKl9par1PTy/FvB11U6dT5UorT8SaDc+GdWmsLoHch+V+zr2YfWsyv5grUZ4epKlUVpJ6n6pTnGrFTi9GFFFFYmgUUUUgCiiigAooooAKKKKACiiimAjcV7v8G/CZ0jSG1O4jK3N4PlDD7qf/X6/lXnfw08Dv4s1ZZZ1I02Bsyt/fODhRX0THGI4wijCjAAHav2DgnJJSn/aFdaL4f8AM+Kz3Hq31am/UdRRRX7UfEhRRRQAUUUUAFFFFABRRRQAUUUUAFFFFABRRRQAUUUUAFFFFABRRRQAUUUUAFFFFABRTQKXHvQAtFJj3paACiikx70ALSY96M+1J+NAChuSKWkUd6WgAopG4FIKAHUUUUAFFGfXikJoAWimgUuPegBaKTHvS0AFFFJj3oAWkx70Z9qT8aAFDckUtIo70tAB+leD/tPfs423xi0I6jpiR23iiyQm3lPyidcE+U5x0J6HtXu5OKB29uKD0MBjq+WYiOJw0rSX9WPxv17QdQ8L6xdaXqtrJZX9q5jlhlUggj6jp6HvVD1r9Q/jp+zjoHxq08yTBdO16JNtvqUaZI/2XXI3L7Hpnivz0+KHwZ8VfCLUmtNe06RIGfEN9GN0Eo56MOh46HBrJxfQ/qbhzi/B53TVOo+St1i+vocPRRx1zmioPv8AzCiiigAooooAKKKPyH1NABRzzjtUlrbzXlwkNvG807kKkcalmYnsAK+rfgH+xTqOvTW+ueO420/TQQ8WkZHmzYIILsD8q9flxnnnFUk2eBm+eYLJaTq4qduy6v0RwX7N/wCzPqPxi1WLUtUjks/CUD/vZjlXuiM/LHx0zgFvTpX6P6Ro9noOm21hYW8draW6COKGNQFRR0AFLpGkWeh6bbWGn28dpZ28YjjhiXCqoGAAPQVcrVKx/K3EXEWI4gxHtKmkF8Me3/BCikbgUgpnyQ6iiigAooz68UhNAC0U0Clx70Acx468E23jLTTEcR3sYzDNjofQ+xr531jR7vQr+SzvIjFOh5HOCPUHHIr6vZfQ7TWD4s8G2Hi6zMd0gWdR+6nX7yH+o9q/PeJOF4ZqniMPpVX4/wDBPocszSWDfs6msPyPmHB+lFdH4s8Bap4SnYTxGW0z8l1GPlPPf0+hrnBzjHSvwHFYOtg6jo14tNH6HRrQrx54O6CiiiuU3CiiigAooopAFFFGCxwPmPT1ppNuyEH14NdH4M8E3njDUFjiUxWiMPOuG6KMjIHqa3PBPwnvfEDx3OoK1jp/XkfvJBjt6D3Ne46VpNpoljHaWUK28EYwFUV+l8PcI1sdKOIxicafbq/+AfL5lnEKKdKhrLuN0XR7XQdOhsrRBHDGMDA5J7k+5q/TRz1OaXHvX71TpxowVOmrJH5/KUpNyk9RaKTHvS1qSFFFJj3oAWkx70Z9qT8aAFDckUtIo70tABRSNwKQUAOooooAKKM+vFITQAtFNApce9AC0UmPeloAKKKTHvQAtJj3oz7Un40AKG5IpaRR3paACikbgUg570ALnFG6m0vHrQAu6kpKUUAGaM0GkoAdnim0UUALuopKXj1oAGOaKOPSkoAXNGTSUUAO69aTj1pKKAHZxRuptLx60ALupKSlFABmjNBpKAHZ4ptFFAC7qM0lLx60ABOaAaOPSkoAU81na94f03xRpsun6rYwahZyqVeG4QOrA+oNaFLQXCUqclODs0fJXxS/YL0nV3nvvBd+dIuDkiwujutyfQEAsv6/SvmDxt+zj8Q/AUrDUPDtxdQDP+k6erXEWAOuQMj8QK/VP6EikZVb7yhh3yOtJxTP0bK+PM1y5KFR+0iv5t/vPxmlheCRo5UeJ16q6kEUwYr9e9c+HXhfxMSdV0HT78njM9urH9RXEah+yn8LNSkZ5fClurNz+5kkjH5KwqOTzPv8P4nYWS/f0Gn5NP8AyPy7yKF+bgda/TiD9j/4TW7ll8LAk/3rydh+r10ej/s+fDrQcfZPCOmgg5DSwiRvzbJo5Dep4m4BL93Rk38l+rPy80Hwfr3imbytH0a+1R88i1gZ8fUgcV718Pf2GfGviaWGfxBLb+HtPZhuTd5lyRnoFxtGR6nj0r9ArHS7LTIVitbSK3jUYVY0CgfpVleKpRR8fmPiRmGIThhYKmu+7/y/A8t+FP7Nvgz4TxRy6dpwu9UQc6hegSTe+DgBfwAr1MD04HpSfjS1Vz8sxWMr4yo6uIm5SfVhntRRRx60HGDHNFHHpSUALmjJpKKAHdetJx60lFADs4o3U2l49aAF3UZ3ZGKbSigCOa3juY2iljWWN+GRxkH2rzvxR8F9O1Rnm0yQ2E558vOYifpjI/CvSCaQcZrysdleEzKPJiYKX5nVQxVXDS5qTsfNutfDTxBohJeya5izgSWuXB/DGa5mWGSBmWSN42XghlIIr64qneaPY6guLq0gnH+3GDX5xi+AKMm3hatvJ6n0tHiGcVarC58oZFLX0rcfDfw3dMTJpUI/655T+Rqv/wAKn8LKxP8AZmT7zOR/OvAlwDjr2VSNvmeiuIaHWLPnHpVi1sLm+k2W1tNcP/djjLH9K+k7XwB4eswPL0m3P/XRd/8AOtq3s7e1QJBBHCo6BFxXdh/D+q3+/rJLyRhU4iiv4cDwPQ/g/rurbHuEj0+BsZac5f8ABR/XFep+F/hbo3hzZN5f226XnzpucH2GMCuv/lS8197lvC2XZa1OMeaXd6nz2KzbE4m6bsuyAKOOwHQUcetJRX16Sjojx/MdnFG6m0vHrTAXdSUlKKADNGaDSUAOzxTaKKAF3UUlLx60ADHNFHHpSUALmjJpKKAHdetJx60lFADs4o3U2l49aAF3UlJSigAzRmg0lADs8U2iigBd1FJS8etAAxzQKOPSkoAKKKKAF49KSiigAooooAKKKKACiiigAooooAKKKKACiiigAooooAXj0pKKKACiiigAooooAKKKKACiiigAooooAKKKKACiiigAooooAKKKKACiiigAooooAKKKKACiiigAooooAKKKKAF49KSiigAooooAKKKKACiiigBePSkoooAKKKKACiiigAooooAXj0pKKKACiiigAooooAKKKKACiiigAooooAKKKKACiiigBePSkoooAKKKKACiiigAooooAKKKKAP/2Q==;fontColor=#000000;" parent="1" vertex="1">
          <mxGeometry x="1090" y="369.25" width="91.25" height="90" as="geometry" />
        </mxCell>
        <mxCell id="iw9xhnVelCiW8hpv55Ob-1" value="SNS" style="outlineConnect=0;fontColor=#232F3E;gradientColor=#F34482;gradientDirection=north;fillColor=#BC1356;strokeColor=#ffffff;dashed=0;verticalLabelPosition=bottom;verticalAlign=top;align=center;html=1;fontSize=12;fontStyle=0;aspect=fixed;shape=mxgraph.aws4.resourceIcon;resIcon=mxgraph.aws4.sns;labelBackgroundColor=none;" vertex="1" parent="1">
          <mxGeometry x="571" y="375.25" width="78" height="78" as="geometry" />
        </mxCell>
        <mxCell id="iw9xhnVelCiW8hpv55Ob-2" style="edgeStyle=orthogonalEdgeStyle;rounded=0;orthogonalLoop=1;jettySize=auto;html=1;startArrow=none;startFill=0;endArrow=open;endFill=0;strokeWidth=2;strokeColor=#808080;" edge="1" parent="1" source="e5_hwdFRrixaUd5XO73S-12" target="iw9xhnVelCiW8hpv55Ob-1">
          <mxGeometry relative="1" as="geometry">
            <mxPoint x="482.9999999999998" y="414" as="sourcePoint" />
            <mxPoint x="690" y="414.28571428571445" as="targetPoint" />
            <Array as="points" />
          </mxGeometry>
        </mxCell>
        <mxCell id="iw9xhnVelCiW8hpv55Ob-3" value="SNS" style="outlineConnect=0;fontColor=#232F3E;gradientColor=#F34482;gradientDirection=north;fillColor=#BC1356;strokeColor=#ffffff;dashed=0;verticalLabelPosition=bottom;verticalAlign=top;align=center;html=1;fontSize=12;fontStyle=0;aspect=fixed;shape=mxgraph.aws4.resourceIcon;resIcon=mxgraph.aws4.sns;labelBackgroundColor=none;" vertex="1" parent="1">
          <mxGeometry x="571" y="585" width="78" height="78" as="geometry" />
        </mxCell>
        <mxCell id="iw9xhnVelCiW8hpv55Ob-4" value="SQS" style="outlineConnect=0;fontColor=#232F3E;gradientColor=#F34482;gradientDirection=north;fillColor=#BC1356;strokeColor=#ffffff;dashed=0;verticalLabelPosition=bottom;verticalAlign=top;align=center;html=1;fontSize=12;fontStyle=0;aspect=fixed;shape=mxgraph.aws4.resourceIcon;resIcon=mxgraph.aws4.sqs;labelBackgroundColor=none;" vertex="1" parent="1">
          <mxGeometry x="583.5" y="720" width="53" height="53" as="geometry" />
        </mxCell>
        <mxCell id="iw9xhnVelCiW8hpv55Ob-5" value="SQS" style="outlineConnect=0;fontColor=#232F3E;gradientColor=#F34482;gradientDirection=north;fillColor=#BC1356;strokeColor=#ffffff;dashed=0;verticalLabelPosition=bottom;verticalAlign=top;align=center;html=1;fontSize=12;fontStyle=0;aspect=fixed;shape=mxgraph.aws4.resourceIcon;resIcon=mxgraph.aws4.sqs;labelBackgroundColor=none;" vertex="1" parent="1">
          <mxGeometry x="690" y="500" width="53" height="53" as="geometry" />
        </mxCell>
        <mxCell id="iw9xhnVelCiW8hpv55Ob-6" value="SQS" style="outlineConnect=0;fontColor=#232F3E;gradientColor=#F34482;gradientDirection=north;fillColor=#BC1356;strokeColor=#ffffff;dashed=0;verticalLabelPosition=bottom;verticalAlign=top;align=center;html=1;fontSize=12;fontStyle=0;aspect=fixed;shape=mxgraph.aws4.resourceIcon;resIcon=mxgraph.aws4.sqs;labelBackgroundColor=none;" vertex="1" parent="1">
          <mxGeometry x="690" y="720" width="53" height="53" as="geometry" />
        </mxCell>
        <mxCell id="iw9xhnVelCiW8hpv55Ob-7" style="rounded=0;orthogonalLoop=1;jettySize=auto;html=1;startArrow=none;startFill=0;endArrow=open;endFill=0;strokeWidth=2;strokeColor=#808080;" edge="1" parent="1" source="iw9xhnVelCiW8hpv55Ob-3" target="5embb1CeHcYyUcUg4fd0-8">
          <mxGeometry relative="1" as="geometry">
            <mxPoint x="649" y="560" as="sourcePoint" />
            <mxPoint x="780" y="560" as="targetPoint" />
          </mxGeometry>
        </mxCell>
        <mxCell id="iw9xhnVelCiW8hpv55Ob-8" style="edgeStyle=orthogonalEdgeStyle;rounded=0;orthogonalLoop=1;jettySize=auto;html=1;startArrow=none;startFill=0;endArrow=open;endFill=0;strokeWidth=2;strokeColor=#808080;" edge="1" parent="1" source="iw9xhnVelCiW8hpv55Ob-3" target="iw9xhnVelCiW8hpv55Ob-6">
          <mxGeometry relative="1" as="geometry">
            <mxPoint x="620" y="463.25" as="sourcePoint" />
            <mxPoint x="620" y="510" as="targetPoint" />
            <Array as="points">
              <mxPoint x="610" y="690" />
              <mxPoint x="716" y="690" />
            </Array>
          </mxGeometry>
        </mxCell>
        <mxCell id="iw9xhnVelCiW8hpv55Ob-10" style="rounded=0;orthogonalLoop=1;jettySize=auto;html=1;startArrow=none;startFill=0;endArrow=open;endFill=0;strokeWidth=2;strokeColor=#808080;" edge="1" parent="1" source="iw9xhnVelCiW8hpv55Ob-1" target="5embb1CeHcYyUcUg4fd0-1">
          <mxGeometry relative="1" as="geometry">
            <mxPoint x="620" y="672.9999999999999" as="sourcePoint" />
            <mxPoint x="620" y="730" as="targetPoint" />
          </mxGeometry>
        </mxCell>
      </root>
    </mxGraphModel>
  </diagram>
</mxfile>
